<?xml version="1.0" encoding="UTF-8" standalone="no"?>
<!-- Created with Inkscape (http://www.inkscape.org/) -->

<svg
   xmlns:dc="http://purl.org/dc/elements/1.1/"
   xmlns:cc="http://creativecommons.org/ns#"
   xmlns:rdf="http://www.w3.org/1999/02/22-rdf-syntax-ns#"
   xmlns:svg="http://www.w3.org/2000/svg"
   xmlns="http://www.w3.org/2000/svg"
   xmlns:sodipodi="http://sodipodi.sourceforge.net/DTD/sodipodi-0.dtd"
   xmlns:inkscape="http://www.inkscape.org/namespaces/inkscape"
   id="svg3069"
   version="1.1"
   inkscape:version="0.48.2 r9819"
   width="139"
   height="26"
   sodipodi:docname="contact.svg">
  <metadata
     id="metadata3075">
    <rdf:RDF>
      <cc:Work
         rdf:about="">
        <dc:format>image/svg+xml</dc:format>
        <dc:type
           rdf:resource="http://purl.org/dc/dcmitype/StillImage" />
        <dc:title />
      </cc:Work>
    </rdf:RDF>
  </metadata>
  <defs
     id="defs3073" />
  <sodipodi:namedview
     pagecolor="#ffffff"
     bordercolor="#666666"
     borderopacity="1"
     objecttolerance="10"
     gridtolerance="10"
     guidetolerance="10"
     inkscape:pageopacity="0"
     inkscape:pageshadow="2"
     inkscape:window-width="1280"
     inkscape:window-height="711"
     id="namedview3071"
     showgrid="false"
     inkscape:zoom="11.262095"
     inkscape:cx="110.71045"
     inkscape:cy="11.002799"
     inkscape:window-x="26"
     inkscape:window-y="41"
     inkscape:window-maximized="0"
     inkscape:current-layer="svg3069" />
  <g
     transform="scale(0.99672328,1.0032875)"
     style="font-size:46.7870636px;font-style:normal;font-variant:normal;font-weight:normal;font-stretch:normal;line-height:125%;letter-spacing:0px;word-spacing:0px;fill:#000000;fill-opacity:1;stroke:none;font-family:Eurostile;-inkscape-font-specification:Eurostile"
     id="text3090">
    <path
       d="m 9.3945759,16.735768 3.2554471,0 0,0.471183 -0.199895,2.070351 c -0.399805,1.884733 -2.351168,2.827099 -5.8540947,2.827099 -2.5700951,0 -4.2787275,-0.461664 -5.1259021,-1.384993 C 0.6229518,19.786563 0.19936329,17.91611 0.19936441,15.108045 0.19936329,12.366625 0.6229518,10.519969 1.4701312,9.5680724 2.3173058,8.6162005 3.9640657,8.1402583 6.4104156,8.1402445 c 2.3606658,1.38e-5 3.9598314,0.3474516 4.7975014,1.0423144 0.837646,0.6853694 1.256475,1.9942101 1.256489,3.9265271 l -3.2411695,0 c -1.01e-5,-1.589638 -0.9185784,-2.384462 -2.7557077,-2.384473 -1.3040889,1.1e-5 -2.1227094,0.252261 -2.455864,0.756749 -0.3331644,0.504509 -0.4997442,1.741958 -0.4997397,3.712352 -4.5e-6,1.903776 0.1808536,3.10315 0.5425746,3.598126 0.3712299,0.485465 1.2707605,0.728195 2.6985946,0.728193 1.1232158,2e-6 1.8418885,-0.166578 2.1560201,-0.49974 0.3236308,-0.342676 0.4854512,-1.104183 0.4854615,-2.284525"
       style="font-size:29.24191475px;font-weight:bold;-inkscape-font-specification:Eurostile Bold"
       id="path3434"
       inkscape:connector-curvature="0" />
    <path
       d="m 21.031373,8.1402445 c 2.636712,1.38e-5 4.364382,0.4236023 5.183015,1.2707668 0.818608,0.8376707 1.227918,2.6129347 1.227932,5.3257977 -1.4e-5,3.027 -0.399805,5.011678 -1.199375,5.954042 -0.799596,0.942367 -2.484431,1.41355 -5.054511,1.41355 -2.789028,0 -4.597609,-0.437867 -5.425746,-1.313602 -0.818622,-0.875732 -1.227933,-2.803298 -1.227932,-5.782702 -10e-7,-2.865165 0.40455,-4.726099 1.213654,-5.5828074 0.809099,-0.8566833 2.570085,-1.2850313 5.282963,-1.2850451 m -0.02856,2.5843685 c -1.361202,1.1e-5 -2.227417,0.247501 -2.598647,0.74247 -0.37124,0.485472 -0.556857,1.627733 -0.556853,3.426787 -4e-6,2.056077 0.176094,3.341121 0.528296,3.855136 0.352193,0.51402 1.232686,0.771029 2.641482,0.771027 1.361187,2e-6 2.217883,-0.271285 2.57009,-0.813862 0.361706,-0.542571 0.542564,-1.846653 0.542575,-3.912249 -1.1e-5,-1.741941 -0.185628,-2.855645 -0.556853,-3.341117 -0.371245,-0.48545 -1.227941,-0.728181 -2.57009,-0.728192"
       style="font-size:29.24191475px;font-weight:bold;-inkscape-font-specification:Eurostile Bold"
       id="path3436"
       inkscape:connector-curvature="0" />
    <path
       d="m 30.169472,8.2973056 3.241169,0 -0.128505,2.2988024 0.07139,0.01428 c 0.637757,-1.6467488 2.065584,-2.4701287 4.283483,-2.4701425 3.226879,1.38e-5 4.840323,1.503991 4.840337,4.5119365 l 0,9.295159 -3.269726,0 0,-8.224289 0,-0.514018 -0.07139,-0.956644 c -0.152312,-1.018507 -0.951895,-1.527765 -2.398751,-1.527776 -2.198861,1.1e-5 -3.298287,1.042324 -3.298283,3.126943 l 0,8.095784 -3.269725,0 0,-13.6500344"
       style="font-size:29.24191475px;font-weight:bold;-inkscape-font-specification:Eurostile Bold"
       id="path3438"
       inkscape:connector-curvature="0" />
    <path
       d="m 54.513937,8.2973056 0,2.4844204 -5.254407,0 0,6.853574 c -5e-6,1.26601 0.480697,1.899013 1.442106,1.899011 1.056585,2e-6 1.584881,-0.766265 1.584889,-2.298803 l 0,-0.542575 2.784265,0 0,0.685358 c -1.1e-5,0.628248 -0.01905,1.166063 -0.05711,1.613445 -0.180868,2.08463 -1.73244,3.126943 -4.654718,3.126943 -2.912773,0 -4.369156,-1.337397 -4.369154,-4.012196 l 0,-7.324757 -1.770506,0 0,-2.4844204 1.770506,0 0,-3.0555517 3.269726,0 0,3.0555517 5.254407,0"
       style="font-size:29.24191475px;font-weight:bold;-inkscape-font-specification:Eurostile Bold"
       id="path3440"
       inkscape:connector-curvature="0" />
    <path
       d="m 60.296641,12.252389 -3.341117,0 c -2e-6,-1.637232 0.380752,-2.7318984 1.142262,-3.2840043 0.761505,-0.5520799 2.270241,-0.8281264 4.526214,-0.8281402 2.455855,1.38e-5 4.116893,0.3379328 4.98312,1.0137578 0.866202,0.6758507 1.299309,1.9656537 1.299323,3.8694137 l 0,8.923924 -3.269726,0 0.157061,-1.870454 -0.08567,-0.01428 c -0.628254,1.361197 -2.079878,2.041794 -4.354875,2.041794 -3.303045,0 -4.954564,-1.404029 -4.954563,-4.212092 -1e-6,-2.836611 1.689593,-4.254919 5.068789,-4.254927 2.255959,8e-6 3.626673,0.518785 4.112144,1.556332 l 0.05711,0 0,-2.213133 c -1e-5,-1.066101 -0.185628,-1.770496 -0.556853,-2.113185 -0.371244,-0.352186 -1.132752,-0.528285 -2.284524,-0.528297 -1.665805,1.2e-5 -2.498704,0.637775 -2.498699,1.91329 m 2.184577,3.583848 c -1.846663,6e-6 -2.769991,0.637768 -2.769986,1.913289 -5e-6,0.885257 0.190372,1.465906 0.571131,1.74195 0.380748,0.276049 1.180331,0.414072 2.398751,0.41407 1.98943,2e-6 2.984149,-0.671076 2.98416,-2.013237 -1.1e-5,-1.370709 -1.061362,-2.056066 -3.184056,-2.056072"
       style="font-size:29.24191475px;font-weight:bold;-inkscape-font-specification:Eurostile Bold"
       id="path3442"
       inkscape:connector-curvature="0" />
    <path
       d="m 80.843085,16.735768 3.255448,0 0,0.471183 -0.199896,2.070351 c -0.399805,1.884733 -2.351168,2.827099 -5.854095,2.827099 -2.570095,0 -4.278727,-0.461664 -5.125902,-1.384993 -0.847179,-0.932845 -1.270767,-2.803298 -1.270766,-5.611363 -10e-7,-2.74142 0.423587,-4.588076 1.270766,-5.5399726 0.847175,-0.9518719 2.493935,-1.4278141 4.940285,-1.4278279 2.360666,1.38e-5 3.959831,0.3474516 4.797501,1.0423144 0.837647,0.6853694 1.256476,1.9942101 1.256489,3.9265271 l -3.241169,0 c -1e-5,-1.589638 -0.918579,-2.384462 -2.755708,-2.384473 -1.304089,1.1e-5 -2.122709,0.252261 -2.455864,0.756749 -0.333164,0.504509 -0.499744,1.741958 -0.49974,3.712352 -4e-6,1.903776 0.180854,3.10315 0.542575,3.598126 0.37123,0.485465 1.27076,0.728195 2.698595,0.728193 1.123215,2e-6 1.841888,-0.166578 2.15602,-0.49974 0.32363,-0.342676 0.485451,-1.104183 0.485461,-2.284525"
       style="font-size:29.24191475px;font-weight:bold;-inkscape-font-specification:Eurostile Bold"
       id="path3444"
       inkscape:connector-curvature="0" />
    <path
       d="m 95.2927,8.2973056 0,2.4844204 -5.254407,0 0,6.853574 c -5e-6,1.26601 0.480696,1.899013 1.442106,1.899011 1.056585,2e-6 1.584881,-0.766265 1.584889,-2.298803 l 0,-0.542575 2.784264,0 0,0.685358 c -1.1e-5,0.628248 -0.01905,1.166063 -0.05711,1.613445 -0.180869,2.08463 -1.73244,3.126943 -4.654719,3.126943 -2.912772,0 -4.369155,-1.337397 -4.369153,-4.012196 l 0,-7.324757 -1.770506,0 0,-2.4844204 1.770506,0 0,-3.0555517 3.269726,0 0,3.0555517 5.254407,0"
       style="font-size:29.24191475px;font-weight:bold;-inkscape-font-specification:Eurostile Bold"
       id="path3446"
       inkscape:connector-curvature="0" />
  </g>
  <g
     id="g3"
     transform="matrix(0.0731299,0,0,0.0731299,101.46284,-5.5254955)"
     style="fill:#44719d;fill-opacity:1">
    <path
       d="m 237.757,287.288 c 14.067,11.696 24.986,9.499 36.188,0.245 L 421.148,164.565 506.573,93.192 C 501.272,85.775 492.58,80.912 482.821,80.912 H 421.148 90.854 29.183 c -9.769,0 -18.459,4.863 -23.749,12.28 l 85.42,71.373 146.903,122.723 z"
       id="path5"
       style="fill:#44719d;fill-opacity:1"
       inkscape:connector-curvature="0" />
    <path
       d="M 176.286,266.307 90.854,194.937 0,119.032 v 282.875 c 0,3.562 0.642,6.982 1.833,10.143 l 89.02,-74.371 85.433,-71.372 z"
       id="path7"
       style="fill:#44719d;fill-opacity:1"
       inkscape:connector-curvature="0" />
    <path
       d="m 317.526,281.497 -45.543,38.054 c -9.88,7.437 -19.699,9.051 -31.815,0.123 l -45.702,-38.177 -103.612,86.562 -72.79,60.81 c 3.431,1.432 7.182,2.22 11.119,2.22 h 61.671 330.294 61.673 c 3.93,0 7.678,-0.788 11.119,-2.22 l -72.792,-60.81 -103.622,-86.562 z"
       id="path9"
       style="fill:#44719d;fill-opacity:1"
       inkscape:connector-curvature="0" />
    <path
       d="m 421.147,194.937 -85.431,71.37 85.431,71.372 89.024,74.371 c 1.179,-3.16 1.828,-6.581 1.828,-10.143 V 119.032 l -90.852,75.905 z"
       id="path11"
       style="fill:#44719d;fill-opacity:1"
       inkscape:connector-curvature="0" />
  </g>
</svg>
