<?xml version="1.0" encoding="UTF-8" standalone="no"?>
<!-- Created with Inkscape (http://www.inkscape.org/) -->

<svg
   xmlns:dc="http://purl.org/dc/elements/1.1/"
   xmlns:cc="http://creativecommons.org/ns#"
   xmlns:rdf="http://www.w3.org/1999/02/22-rdf-syntax-ns#"
   xmlns:svg="http://www.w3.org/2000/svg"
   xmlns="http://www.w3.org/2000/svg"
   xmlns:sodipodi="http://sodipodi.sourceforge.net/DTD/sodipodi-0.dtd"
   xmlns:inkscape="http://www.inkscape.org/namespaces/inkscape"
   id="svg3069"
   version="1.1"
   inkscape:version="0.48.2 r9819"
   width="137"
   height="26"
   sodipodi:docname="contact.png">
  <metadata
     id="metadata3075">
    <rdf:RDF>
      <cc:Work
         rdf:about="">
        <dc:format>image/svg+xml</dc:format>
        <dc:type
           rdf:resource="http://purl.org/dc/dcmitype/StillImage" />
        <dc:title></dc:title>
      </cc:Work>
    </rdf:RDF>
  </metadata>
  <defs
     id="defs3073" />
  <sodipodi:namedview
     pagecolor="#ffffff"
     bordercolor="#666666"
     borderopacity="1"
     objecttolerance="10"
     gridtolerance="10"
     guidetolerance="10"
     inkscape:pageopacity="0"
     inkscape:pageshadow="2"
     inkscape:window-width="1283"
     inkscape:window-height="711"
     id="namedview3071"
     showgrid="false"
     inkscape:zoom="11.262095"
     inkscape:cx="71.641342"
     inkscape:cy="18.106273"
     inkscape:window-x="26"
     inkscape:window-y="41"
     inkscape:window-maximized="0"
     inkscape:current-layer="svg3069" />
  <text
     xml:space="preserve"
     style="font-size:46.7870636px;font-style:normal;font-variant:normal;font-weight:normal;font-stretch:normal;line-height:125%;letter-spacing:0px;word-spacing:0px;fill:#000000;fill-opacity:1;stroke:none;font-family:Eurostile;-inkscape-font-specification:Eurostile"
     x="-0.91434133"
     y="21.94734"
     id="text3090"
     sodipodi:linespacing="125%"
     transform="scale(0.99672328,1.0032875)"><tspan
       sodipodi:role="line"
       id="tspan3092"
       x="-0.91434133"
       y="21.94734"
       style="font-size:29.24191475px;font-weight:bold;-inkscape-font-specification:Eurostile Bold">contact</tspan></text>
  <g
     id="g3"
     transform="matrix(0.0731299,0,0,0.0731299,99.729219,-5.773925)"
     style="fill:#44719d;fill-opacity:1">
    <path
       d="m 237.757,287.288 c 14.067,11.696 24.986,9.499 36.188,0.245 L 421.148,164.565 506.573,93.192 C 501.272,85.775 492.58,80.912 482.821,80.912 H 421.148 90.854 29.183 c -9.769,0 -18.459,4.863 -23.749,12.28 l 85.42,71.373 146.903,122.723 z"
       id="path5"
       style="fill:#44719d;fill-opacity:1"
       inkscape:connector-curvature="0" />
    <path
       d="M 176.286,266.307 90.854,194.937 0,119.032 v 282.875 c 0,3.562 0.642,6.982 1.833,10.143 l 89.02,-74.371 85.433,-71.372 z"
       id="path7"
       style="fill:#44719d;fill-opacity:1"
       inkscape:connector-curvature="0" />
    <path
       d="m 317.526,281.497 -45.543,38.054 c -9.88,7.437 -19.699,9.051 -31.815,0.123 l -45.702,-38.177 -103.612,86.562 -72.79,60.81 c 3.431,1.432 7.182,2.22 11.119,2.22 h 61.671 330.294 61.673 c 3.93,0 7.678,-0.788 11.119,-2.22 l -72.792,-60.81 -103.622,-86.562 z"
       id="path9"
       style="fill:#44719d;fill-opacity:1"
       inkscape:connector-curvature="0" />
    <path
       d="m 421.147,194.937 -85.431,71.37 85.431,71.372 89.024,74.371 c 1.179,-3.16 1.828,-6.581 1.828,-10.143 V 119.032 l -90.852,75.905 z"
       id="path11"
       style="fill:#44719d;fill-opacity:1"
       inkscape:connector-curvature="0" />
  </g>
</svg>
