<svg width="151" height="47" xmlns="http://www.w3.org/2000/svg">
 <g>
  <title>Layer 1</title>
  <g id="Ebene_x0020_1">
   <metadata id="CorelCorpID_0Corel-Layer"/>
   <g id="_153574520">
    <path id="_153577136" fill="black" fill-rule="nonzero" d="m12.428673,15.8057c1.470581,0 3.170879,-0.367617 5.101307,-1.102966l0,4.733574c-0.429024,0.153103 -1.041676,0.321648 -1.838376,0.505632c0.245039,0.70459 0.367677,1.363327 0.367677,1.976099c0,1.960896 -0.589729,3.668795 -1.769307,5.124172c-1.179637,1.455261 -2.704025,2.321146 -4.572987,2.59659c-1.225307,0.183929 -1.838139,0.842726 -1.838139,1.97628c0,0.398319 0.199131,0.796638 0.59745,1.194778c0.520838,0.582306 1.286715,0.9501 2.297747,1.103207c4.381517,0.673882 6.571948,2.496937 6.571948,5.468803c0,4.749241 -2.833967,7.12373 -8.50202,7.12373c-2.32857,0 -4.243616,-0.413586 -5.744665,-1.240929c-1.899784,-1.041683 -2.849408,-2.680859 -2.849408,-4.917679c0,-2.573547 1.424674,-4.335194 4.273846,-5.284874l0,-0.091934c-1.041559,-0.64336 -1.562338,-1.62381 -1.562338,-2.941402c0,-1.715799 0.490194,-2.7883 1.470642,-3.216846l0,-0.092051c-0.980448,-0.336971 -1.853757,-1.103207 -2.619693,-2.297985c-0.857869,-1.286716 -1.286774,-2.665483 -1.286774,-4.136185c0,-2.206049 0.781376,-4.044188 2.343773,-5.514891c1.501405,-1.378765 3.293755,-2.068089 5.377167,-2.068089c1.501287,0 2.895197,0.367675 4.182149,1.102966l0.000001,-0.000001zm0.183748,24.173738l0,0c0,-1.562634 -1.286714,-2.343834 -3.8605,-2.343834c-2.481733,0 -3.72254,0.811901 -3.72254,2.435825c0,1.592983 1.348182,2.389622 4.04425,2.389622c2.359214,0 3.538792,-0.826988 3.538792,-2.481613l-0.000001,0zm-7.077405,-17.647816l0,0c0,2.114178 0.965184,3.171236 2.895257,3.171236c1.86896,0 2.803382,-1.072502 2.803382,-3.217144c0,-0.888514 -0.214453,-1.65439 -0.643357,-2.297985c-0.520839,-0.704588 -1.240807,-1.057056 -2.160025,-1.057056c-1.930072,0 -2.895257,1.133787 -2.895257,3.400949z"/>
    <path id="_153577064" fill="black" fill-rule="nonzero" d="m22.403177,11.347631c-0.888515,0 -1.646669,-0.336853 -2.274885,-1.011033c-0.628035,-0.674004 -0.942141,-1.470465 -0.942141,-2.389681c0,-0.949862 0.314106,-1.761645 0.942141,-2.435825c0.628216,-0.674002 1.38637,-1.011092 2.274885,-1.011092c0.857927,0 1.600939,0.33709 2.228975,1.011092c0.628151,0.67418 0.942141,1.485963 0.942141,2.435825c0,0.919217 -0.31399,1.715678 -0.942141,2.389681c-0.628036,0.67418 -1.371048,1.011033 -2.228975,1.011033z"/>
    <path id="_153576992" fill="black" fill-rule="nonzero" d="m19.78372,35.33762c0.061228,-0.612537 0.091696,-1.654152 0.091696,-3.124973l0,-14.293068c0,-1.439817 -0.030468,-2.435704 -0.091696,-2.987128l5.193241,0c-0.061407,0.582187 -0.092052,1.547311 -0.092052,2.895432l0,14.108904c0,1.562695 0.030645,2.696304 0.092052,3.400833l-5.193241,0z"/>
    <path id="_153576920" fill="black" fill-rule="nonzero" d="m34.486629,14.932449l3.998165,0l0,4.45783c-0.153107,0 -0.436508,-0.015203 -0.850208,-0.045908c-0.413582,-0.030584 -0.804184,-0.046024 -1.171917,-0.046024l-1.97604,0l0,8.548105c0,2.052889 0.673943,3.079184 2.022064,3.079184c0.949863,0 1.807552,-0.26018 2.573788,-0.781199l0,4.595613c-1.133671,0.613007 -2.497177,0.919281 -4.090454,0.919281c-2.236576,0 -3.783649,-0.796524 -4.641581,-2.389626c-0.643356,-1.195076 -0.965242,-3.079065 -0.965242,-5.653028l0,-8.226398l0.046026,0l0,-0.091932l-0.689384,-0.04579c-0.398319,0 -0.919159,0.04579 -1.562515,0.137722l0,-4.457829l2.2519,0l0,-1.79235c0,-0.857929 -0.046026,-1.547314 -0.137844,-2.068151l5.331026,0c-0.091816,0.582187 -0.137783,1.240926 -0.137783,1.976098l0,1.884402z"/>
    <path id="_153576848" fill="black" fill-rule="nonzero" d="m50.629417,14.794548c-1.317299,0 -2.696068,0.459611 -4.136124,1.37859l0,-8.042412c0,-1.746324 0.030701,-2.895316 0.091877,-3.44674l-5.239208,0c0.092052,0.490194 0.137959,1.639008 0.137959,3.44674l0,24.311695c0,1.409115 -0.045906,2.374599 -0.137959,2.895199l5.331139,0c0,-0.09193 -0.030464,-0.467091 -0.09193,-1.125828c-0.061176,-0.658802 -0.091877,-1.248764 -0.091877,-1.769371l0,-11.305698c1.07238,-1.011032 2.114002,-1.51643 3.125092,-1.51643c1.164375,0 2.052826,0.58189 2.665661,1.746086c0.459431,0.919336 0.689384,2.068329 0.689384,3.447096l-0.046028,6.204037c0,1.042032 -0.076488,2.48197 -0.229717,4.320108l5.560684,0c-0.122341,-0.765759 -0.183754,-2.175228 -0.183754,-4.228176l0,-6.295969c0,-2.665661 -0.597328,-4.93294 -1.792347,-6.801844c-1.348183,-2.144762 -3.232349,-3.217083 -5.652851,-3.217083z"/>
    <path id="_153576776" fill="black" fill-rule="nonzero" d="m66.90007,35.521606c-2.420563,0 -4.212799,-1.072502 -5.377171,-3.217377c-0.919041,-1.74609 -1.378643,-4.028812 -1.378643,-6.847397l0,-6.296209c0,-2.08353 -0.061234,-3.492884 -0.183872,-4.228173l5.515011,0c-0.092056,0.674002 -0.153168,2.114058 -0.183983,4.320107l-0.045792,6.204275c0,1.746204 0.199188,3.002569 0.597328,3.76833c0.459793,0.9501 1.302277,1.42491 2.527763,1.42491c0.857933,0 1.823112,-0.505634 2.895432,-1.516489l0,-11.3057c0,-0.521015 -0.030823,-1.118464 -0.091995,-1.792469c-0.061584,-0.674178 -0.091934,-1.041615 -0.091934,-1.102963l5.33091,0c-0.06105,0.520839 -0.091873,1.485904 -0.091873,2.895432l0,14.063116c0,1.807434 0.03083,2.956429 0.091873,3.446621l-5.009254,0l0,-1.654152c-1.409477,1.225128 -2.910645,1.838139 -4.503799,1.838139z"/>
    <path id="_153576704" fill="black" fill-rule="nonzero" d="m87.582756,35.47546c-1.654205,0 -3.032982,-0.597328 -4.136177,-1.791992l0,1.654152l-4.871536,0c0.092049,-0.520599 0.138191,-1.486084 0.138191,-2.895199l0,-24.311695c0,-1.807732 -0.046143,-2.956546 -0.138191,-3.44674l5.239319,0c-0.061516,0.551424 -0.091866,1.700416 -0.091866,3.44674l0,7.996624c1.409119,-0.888395 2.78817,-1.332802 4.136116,-1.332802c2.420387,0 4.320244,1.072321 5.698883,3.217083c1.16407,1.868904 1.746208,4.136183 1.746208,6.801844c0,2.726713 -0.612656,5.101189 -1.83815,7.123312c-1.470695,2.359215 -3.431587,3.538673 -5.882797,3.538673zm-0.689201,-15.855167l0,0c-1.011269,0 -2.068222,0.505398 -3.171059,1.51643l0,7.950716c0.980431,0.949625 1.94545,1.424913 2.895195,1.424913c1.194786,0 2.098732,-0.6588 2.711632,-1.976456c0.490295,-1.041559 0.735344,-2.282543 0.735344,-3.722424c0,-3.462181 -1.057053,-5.193182 -3.171112,-5.193182l0,0.000002z"/>
   </g>
  </g>
  <g id="svg_1">
   <path id="svg_2" d="m136.200912,38.463631c0,2.589573 -5.998184,4.688625 -13.3964,4.688625c-7.39946,0 -13.397682,-2.099037 -13.397682,-4.688625c0,-2.589645 5.998001,-4.689144 13.397682,-4.689144c7.39817,0 13.3964,2.099873 13.3964,4.689144z" fill="#9CDAF1"/>
   <path id="svg_3" d="m119.163414,42.97744l0,-3.342232c0,-0.431538 -0.078079,-0.792458 -0.208435,-1.097332c0.86422,0.671204 0.922653,2.357819 0.922653,2.357819l0,2.144569c0.777733,0.060768 1.580872,0.097473 2.402939,0.108536l-0.021637,-2.133961c-0.119087,-2.917084 -2.61937,-3.274155 -2.61937,-3.274155c-0.913712,-0.207462 -0.900177,0.251163 -0.808327,0.547379c-0.896416,-1.528793 -3.298988,-1.331341 -3.298988,-1.331341c-0.833748,0.297279 -0.059875,0.833305 -0.059875,0.833305c1.310059,0.476078 1.428978,1.904984 1.428978,1.904984l0,2.979149c0.721375,0.12365 1.476898,0.225731 2.262589,0.302612l-0.000526,0.000668z" fill="#7DBBE6"/>
   <path id="svg_4" d="m129.700745,36.956497c0,0 -2.402878,-0.197533 -3.299225,1.33165c0.091843,-0.296223 0.105682,-0.755295 -0.808167,-0.547688c0,0 -2.500153,0.357147 -2.619148,3.274158l-0.022034,2.137192c0.820892,-0.003094 1.624031,-0.032043 2.403023,-0.084625l0,-2.171642c0,0 0.05867,-1.686623 0.922745,-2.357826c-0.13031,0.30489 -0.20845,0.665718 -0.20845,1.097416l0,3.376831c0.783722,-0.068596 1.5401,-0.161339 2.262207,-0.275909l0,-3.041119c0,0 0.11908,-1.428986 1.428833,-1.905056c0,-0.001286 0.773117,-0.537304 -0.060562,-0.834961l0.000778,0.001579l0,0z" fill="#7DBBE6"/>
   <path id="svg_5" d="m146.446884,19.027256l0.035278,-0.175114c-3.930008,-0.785843 -7.96315,-0.793814 -10.403183,-0.692413c0.400681,-1.444176 0.521423,-3.105967 0.521423,-4.959047c0,-2.657722 -0.998398,-4.784002 -2.619583,-6.401717c0.283386,-0.914321 0.661636,-2.94484 -0.377686,-5.544568c0,0 -1.834045,-0.582291 -5.981979,2.193984c-1.625015,-0.405972 -3.354263,-0.606511 -5.086166,-0.606511c-1.90551,0 -3.831024,0.242662 -5.626785,0.735138c-4.280457,-2.920094 -6.170113,-2.321931 -6.170113,-2.321931c-1.233482,3.0846 -0.47081,5.368318 -0.239136,5.935566c-1.44973,1.564608 -2.334862,3.562037 -2.334862,6.010639c0,1.848643 0.210472,3.507199 0.724525,4.94859c-2.460716,-0.089514 -6.346718,-0.055063 -10.136604,0.702717l0.034828,0.175192c3.812744,-0.76252 7.723213,-0.789 10.168961,-0.696476c0.113205,0.298407 0.239502,0.58778 0.380974,0.867603c-2.418571,0.077852 -6.548386,0.386189 -10.506157,1.502775l0.04882,0.171429c3.989059,-1.124636 8.154678,-1.425219 10.549789,-1.49856c1.445084,2.693756 4.294098,4.433401 9.362587,4.979654c-0.719345,0.483526 -1.45327,1.305323 -1.750626,2.695715c-0.980286,0.468851 -4.083618,1.61342 -5.94558,-1.58898c0,0 -1.042191,-1.905582 -3.037216,-2.054672c0,0 -1.935135,-0.029716 -0.133507,1.20595c0,0 1.294846,0.610044 2.188255,2.903168c0,0 1.165474,3.91099 6.789719,2.656219l0,4.039911c0,0 -0.118935,1.428902 -1.428986,1.90498c0,0 -0.774033,0.535877 0.059883,0.833157c0,0 3.631233,0.297798 3.631233,-2.678482l0,-4.40526c0,0 -0.144051,-1.747101 0.714149,-2.354286l0,7.235476c0,0 -0.059265,1.72633 -0.952316,2.381283c0,0 -0.595673,1.071224 0.714241,0.773945c0,0 2.50013,-0.357155 2.619362,-3.274155l0.056633,-7.3225l0.600929,0l0.05719,7.3225c0.118835,2.917 2.619209,3.274155 2.619209,3.274155c1.309433,0.297279 0.714142,-0.773945 0.714142,-0.773945c-0.892868,-0.654953 -0.952286,-2.381283 -0.952286,-2.381283l0,-7.173119c0.857742,0.667973 0.714218,2.291771 0.714218,2.291771l0,4.405121c0,2.976433 3.631241,2.678474 3.631241,2.678474c0.833221,-0.297195 0.05986,-0.833073 0.05986,-0.833073c-1.309906,-0.476154 -1.428879,-1.905056 -1.428879,-1.905056l0,-5.774517c0,-2.251825 -0.948105,-3.444242 -1.875504,-4.073692c5.405319,-0.53603 7.999344,-2.281311 9.194534,-4.993193c2.367676,0.065062 6.628433,0.353539 10.704071,1.503147l0.048615,-0.171431c-4.052414,-1.142986 -8.285187,-1.438761 -10.676804,-1.508415c0.113373,-0.274109 0.212143,-0.558971 0.300003,-0.851955c2.42778,-0.100952 6.480011,-0.099598 10.425095,0.688572l-0.005814,-0.00248l0,0z"/>
   <path id="svg_6" d="m131.313766,13.075966c1.164276,1.054675 1.845184,2.328398 1.845184,3.700665c0,6.407436 -4.776413,6.581045 -10.667809,6.581045c-5.89241,0 -10.668274,-0.887314 -10.668274,-6.581045c0,-1.363238 0.67141,-2.62891 1.821259,-3.679379c1.918068,-1.750628 5.164085,-0.823676 8.846924,-0.823676c3.666313,-0.000525 6.901268,-0.936953 8.822029,0.801709l0.000687,0.000681z" fill="#F4CBB2"/>
   <path id="svg_7" d="m118.942642,17.10264c0,1.764917 -0.993835,3.19533 -2.219719,3.19533c-1.225876,0 -2.219711,-1.430561 -2.219711,-3.19533c0,-1.76462 0.993835,-3.194654 2.219711,-3.194654c1.225975,0.001355 2.219719,1.430338 2.219719,3.194654zm11.909576,0c0,1.764917 -0.99382,3.19533 -2.219788,3.19533c-1.225876,0 -2.219772,-1.430561 -2.219772,-3.19533c0,-1.76462 0.993896,-3.194654 2.219772,-3.194654c1.225967,0.001355 2.219788,1.430338 2.219788,3.194654z" fill="#FFFFFF"/>
   <path id="svg_8" d="m118.231346,17.143036c0,1.176464 -0.663383,2.129665 -1.479912,2.129665s-1.479752,-0.953356 -1.479752,-2.129665c0,-1.176914 0.662781,-2.130648 1.479752,-2.130648c0.816002,0 1.479385,0.95343 1.479385,2.130041l0.000526,0.000607zm11.908226,0c0,1.176464 -0.6633,2.129665 -1.479919,2.129665c-0.816437,0 -1.479752,-0.953356 -1.479752,-2.129665c0,-1.176914 0.662781,-2.130648 1.479752,-2.130648c0.816162,0 1.479462,0.95343 1.479462,2.130041l0.000458,0.000607z" fill="#AD5C51"/>
   <circle id="svg_9" r="0.555057" cy="19.940367" cx="122.524529" fill="#AD5C51"/>
   <path id="svg_10" d="m121.229233,21.344149c-0.032814,-0.093126 0.016159,-0.194897 0.108604,-0.227694c0.092896,-0.032797 0.194977,0.016245 0.227562,0.108545c0.14299,0.403412 0.525558,0.674286 0.95237,0.674286c0.426804,0 0.809303,-0.2708 0.95237,-0.674286c0.032791,-0.092976 0.134575,-0.141342 0.227554,-0.108545c0.093056,0.032946 0.141335,0.134567 0.108681,0.227694c-0.192703,0.545359 -0.711205,0.911684 -1.288696,0.911684c-0.57753,0 -1.094757,-0.364525 -1.287697,-0.910553l-0.000748,-0.001131z" fill="#AD5C51"/>
   <path id="svg_11" d="m108.921341,23.882874c0,0.148111 -0.173531,0.26771 -0.387161,0.26771c-0.21347,0 -0.387161,-0.119596 -0.387161,-0.26771c0,-0.14819 0.173691,-0.268164 0.387161,-0.268164c0.213631,0 0.387161,0.119902 0.387161,0.268614l0,-0.00045zm1.071976,0.595299c0,0.148111 -0.173531,0.267641 -0.387161,0.267641c-0.213547,0 -0.387161,-0.11953 -0.387161,-0.267641c0,-0.148182 0.173691,-0.268238 0.387161,-0.268238c0.213631,0 0.387161,0.119904 0.387161,0.268618l0,-0.00038zm0.654953,0.774403c0,0.148039 -0.173531,0.267635 -0.387169,0.267635c-0.213463,0 -0.387154,-0.119596 -0.387154,-0.267635c0,-0.148254 0.173691,-0.268164 0.387154,-0.268164c0.213638,0 0.387169,0.119825 0.387169,0.268539l0,-0.000378l0,0.000002zm0.595306,0.892879c0,0.148111 -0.173538,0.267715 -0.387161,0.267715c-0.213478,0 -0.387169,-0.119602 -0.387169,-0.267715c0,-0.148182 0.173691,-0.268238 0.387169,-0.268238c0.213623,0 0.387161,0.119976 0.387161,0.268612l0,-0.000374zm0.654343,0.833677c0,0.148111 -0.173523,0.267637 -0.387161,0.267637c-0.213463,0 -0.387161,-0.11953 -0.387161,-0.267637c0,-0.14819 0.173698,-0.268238 0.387161,-0.268238c0.213638,0 0.387161,0.119907 0.387161,0.268616l0,-0.000378zm0.894173,0.713776c0,0.148111 -0.173531,0.267717 -0.387177,0.267717c-0.21347,0 -0.387161,-0.119606 -0.387161,-0.267717c0,-0.148262 0.173691,-0.268164 0.387161,-0.268164c0.213646,0 0.387177,0.119835 0.387177,0.268621l0,-0.000458l0,0zm1.249878,0.476757c0,0.148109 -0.173531,0.267706 -0.387177,0.267706c-0.21347,0 -0.387154,-0.119596 -0.387154,-0.267706c0,-0.148266 0.173683,-0.268167 0.387154,-0.268167c0.213646,0 0.387177,0.119827 0.387177,0.268616l0,-0.000446l0,0l0,-0.000002zm1.244766,0c0,0.148109 -0.173546,0.267706 -0.387169,0.267706c-0.213486,0 -0.387169,-0.119596 -0.387169,-0.267706c0,-0.148266 0.173683,-0.268167 0.387169,-0.268167c0.213623,0 0.387169,0.119827 0.387169,0.268616l0,-0.000446l0,0l0,-0.000002zm1.262436,-0.206787c0,0.148039 -0.173538,0.267641 -0.387169,0.267641c-0.213478,0 -0.387161,-0.119602 -0.387161,-0.267641c0,-0.148335 0.173683,-0.268238 0.387161,-0.268238c0.213631,0 0.387169,0.119825 0.387169,0.268618l0,-0.00038z" fill="#C3E4D8"/>
   <path id="svg_12" d="m107.499733,24.677435l-0.386703,1.347214c0,0 -0.100883,0.487055 0.3582,0.573336c0.47924,-0.009331 0.439667,-0.457418 0.406494,-0.602972l-0.377991,-1.317583l0,0.000008l0,-0.000002z" fill="#9CDAF1"/>
  </g>
 </g>
</svg>