<?xml version="1.0" encoding="UTF-8" standalone="no"?>
<svg
   xmlns:dc="http://purl.org/dc/elements/1.1/"
   xmlns:cc="http://creativecommons.org/ns#"
   xmlns:rdf="http://www.w3.org/1999/02/22-rdf-syntax-ns#"
   xmlns:svg="http://www.w3.org/2000/svg"
   xmlns="http://www.w3.org/2000/svg"
   xmlns:sodipodi="http://sodipodi.sourceforge.net/DTD/sodipodi-0.dtd"
   xmlns:inkscape="http://www.inkscape.org/namespaces/inkscape"
   width="151"
   height="47"
   id="svg3594"
   version="1.1"
   inkscape:version="0.48.2 r9819"
   sodipodi:docname="github.svg">
  <metadata
     id="metadata3626">
    <rdf:RDF>
      <cc:Work
         rdf:about="">
        <dc:format>image/svg+xml</dc:format>
        <dc:type
           rdf:resource="http://purl.org/dc/dcmitype/StillImage" />
      </cc:Work>
    </rdf:RDF>
  </metadata>
  <defs
     id="defs3624" />
  <sodipodi:namedview
     pagecolor="#ffffff"
     bordercolor="#666666"
     borderopacity="1"
     objecttolerance="10"
     gridtolerance="10"
     guidetolerance="10"
     inkscape:pageopacity="0"
     inkscape:pageshadow="2"
     inkscape:window-width="640"
     inkscape:window-height="480"
     id="namedview3622"
     showgrid="false"
     inkscape:zoom="2.3311258"
     inkscape:cx="75.5"
     inkscape:cy="23.5"
     inkscape:window-x="0"
     inkscape:window-y="0"
     inkscape:window-maximized="0"
     inkscape:current-layer="g3596" />
  <g
     id="g3596">
    <title
       id="title3598">Layer 1</title>
    <g
       id="Ebene_x0020_1">
      <metadata
         id="CorelCorpID_0Corel-Layer" />
      <g
         id="_153574520">
        <path
           id="_153577136"
           fill="black"
           fill-rule="nonzero"
           d="m12.428673,15.8057c1.470581,0 3.170879,-0.367617 5.101307,-1.102966l0,4.733574c-0.429024,0.153103 -1.041676,0.321648 -1.838376,0.505632c0.245039,0.70459 0.367677,1.363327 0.367677,1.976099c0,1.960896 -0.589729,3.668795 -1.769307,5.124172c-1.179637,1.455261 -2.704025,2.321146 -4.572987,2.59659c-1.225307,0.183929 -1.838139,0.842726 -1.838139,1.97628c0,0.398319 0.199131,0.796638 0.59745,1.194778c0.520838,0.582306 1.286715,0.9501 2.297747,1.103207c4.381517,0.673882 6.571948,2.496937 6.571948,5.468803c0,4.749241 -2.833967,7.12373 -8.50202,7.12373c-2.32857,0 -4.243616,-0.413586 -5.744665,-1.240929c-1.899784,-1.041683 -2.849408,-2.680859 -2.849408,-4.917679c0,-2.573547 1.424674,-4.335194 4.273846,-5.284874l0,-0.091934c-1.041559,-0.64336 -1.562338,-1.62381 -1.562338,-2.941402c0,-1.715799 0.490194,-2.7883 1.470642,-3.216846l0,-0.092051c-0.980448,-0.336971 -1.853757,-1.103207 -2.619693,-2.297985c-0.857869,-1.286716 -1.286774,-2.665483 -1.286774,-4.136185c0,-2.206049 0.781376,-4.044188 2.343773,-5.514891c1.501405,-1.378765 3.293755,-2.068089 5.377167,-2.068089c1.501287,0 2.895197,0.367675 4.182149,1.102966l0.000001,-0.000001zm0.183748,24.173738l0,0c0,-1.562634 -1.286714,-2.343834 -3.8605,-2.343834c-2.481733,0 -3.72254,0.811901 -3.72254,2.435825c0,1.592983 1.348182,2.389622 4.04425,2.389622c2.359214,0 3.538792,-0.826988 3.538792,-2.481613l-0.000001,0zm-7.077405,-17.647816l0,0c0,2.114178 0.965184,3.171236 2.895257,3.171236c1.86896,0 2.803382,-1.072502 2.803382,-3.217144c0,-0.888514 -0.214453,-1.65439 -0.643357,-2.297985c-0.520839,-0.704588 -1.240807,-1.057056 -2.160025,-1.057056c-1.930072,0 -2.895257,1.133787 -2.895257,3.400949z" />
        <path
           id="_153577064"
           fill="black"
           fill-rule="nonzero"
           d="m22.403177,11.347631c-0.888515,0 -1.646669,-0.336853 -2.274885,-1.011033c-0.628035,-0.674004 -0.942141,-1.470465 -0.942141,-2.389681c0,-0.949862 0.314106,-1.761645 0.942141,-2.435825c0.628216,-0.674002 1.38637,-1.011092 2.274885,-1.011092c0.857927,0 1.600939,0.33709 2.228975,1.011092c0.628151,0.67418 0.942141,1.485963 0.942141,2.435825c0,0.919217 -0.31399,1.715678 -0.942141,2.389681c-0.628036,0.67418 -1.371048,1.011033 -2.228975,1.011033z" />
        <path
           id="_153576992"
           fill="black"
           fill-rule="nonzero"
           d="m19.78372,35.33762c0.061228,-0.612537 0.091696,-1.654152 0.091696,-3.124973l0,-14.293068c0,-1.439817 -0.030468,-2.435704 -0.091696,-2.987128l5.193241,0c-0.061407,0.582187 -0.092052,1.547311 -0.092052,2.895432l0,14.108904c0,1.562695 0.030645,2.696304 0.092052,3.400833l-5.193241,0z" />
        <path
           id="_153576920"
           fill="black"
           fill-rule="nonzero"
           d="m34.486629,14.932449l3.998165,0l0,4.45783c-0.153107,0 -0.436508,-0.015203 -0.850208,-0.045908c-0.413582,-0.030584 -0.804184,-0.046024 -1.171917,-0.046024l-1.97604,0l0,8.548105c0,2.052889 0.673943,3.079184 2.022064,3.079184c0.949863,0 1.807552,-0.26018 2.573788,-0.781199l0,4.595613c-1.133671,0.613007 -2.497177,0.919281 -4.090454,0.919281c-2.236576,0 -3.783649,-0.796524 -4.641581,-2.389626c-0.643356,-1.195076 -0.965242,-3.079065 -0.965242,-5.653028l0,-8.226398l0.046026,0l0,-0.091932l-0.689384,-0.04579c-0.398319,0 -0.919159,0.04579 -1.562515,0.137722l0,-4.457829l2.2519,0l0,-1.79235c0,-0.857929 -0.046026,-1.547314 -0.137844,-2.068151l5.331026,0c-0.091816,0.582187 -0.137783,1.240926 -0.137783,1.976098l0,1.884402z" />
        <path
           id="_153576848"
           fill="black"
           fill-rule="nonzero"
           d="m50.629417,14.794548c-1.317299,0 -2.696068,0.459611 -4.136124,1.37859l0,-8.042412c0,-1.746324 0.030701,-2.895316 0.091877,-3.44674l-5.239208,0c0.092052,0.490194 0.137959,1.639008 0.137959,3.44674l0,24.311695c0,1.409115 -0.045906,2.374599 -0.137959,2.895199l5.331139,0c0,-0.09193 -0.030464,-0.467091 -0.09193,-1.125828c-0.061176,-0.658802 -0.091877,-1.248764 -0.091877,-1.769371l0,-11.305698c1.07238,-1.011032 2.114002,-1.51643 3.125092,-1.51643c1.164375,0 2.052826,0.58189 2.665661,1.746086c0.459431,0.919336 0.689384,2.068329 0.689384,3.447096l-0.046028,6.204037c0,1.042032 -0.076488,2.48197 -0.229717,4.320108l5.560684,0c-0.122341,-0.765759 -0.183754,-2.175228 -0.183754,-4.228176l0,-6.295969c0,-2.665661 -0.597328,-4.93294 -1.792347,-6.801844c-1.348183,-2.144762 -3.232349,-3.217083 -5.652851,-3.217083z" />
        <path
           id="_153576776"
           fill="black"
           fill-rule="nonzero"
           d="m66.90007,35.521606c-2.420563,0 -4.212799,-1.072502 -5.377171,-3.217377c-0.919041,-1.74609 -1.378643,-4.028812 -1.378643,-6.847397l0,-6.296209c0,-2.08353 -0.061234,-3.492884 -0.183872,-4.228173l5.515011,0c-0.092056,0.674002 -0.153168,2.114058 -0.183983,4.320107l-0.045792,6.204275c0,1.746204 0.199188,3.002569 0.597328,3.76833c0.459793,0.9501 1.302277,1.42491 2.527763,1.42491c0.857933,0 1.823112,-0.505634 2.895432,-1.516489l0,-11.3057c0,-0.521015 -0.030823,-1.118464 -0.091995,-1.792469c-0.061584,-0.674178 -0.091934,-1.041615 -0.091934,-1.102963l5.33091,0c-0.06105,0.520839 -0.091873,1.485904 -0.091873,2.895432l0,14.063116c0,1.807434 0.03083,2.956429 0.091873,3.446621l-5.009254,0l0,-1.654152c-1.409477,1.225128 -2.910645,1.838139 -4.503799,1.838139z" />
        <path
           id="_153576704"
           fill="black"
           fill-rule="nonzero"
           d="m87.582756,35.47546c-1.654205,0 -3.032982,-0.597328 -4.136177,-1.791992l0,1.654152l-4.871536,0c0.092049,-0.520599 0.138191,-1.486084 0.138191,-2.895199l0,-24.311695c0,-1.807732 -0.046143,-2.956546 -0.138191,-3.44674l5.239319,0c-0.061516,0.551424 -0.091866,1.700416 -0.091866,3.44674l0,7.996624c1.409119,-0.888395 2.78817,-1.332802 4.136116,-1.332802c2.420387,0 4.320244,1.072321 5.698883,3.217083c1.16407,1.868904 1.746208,4.136183 1.746208,6.801844c0,2.726713 -0.612656,5.101189 -1.83815,7.123312c-1.470695,2.359215 -3.431587,3.538673 -5.882797,3.538673zm-0.689201,-15.855167l0,0c-1.011269,0 -2.068222,0.505398 -3.171059,1.51643l0,7.950716c0.980431,0.949625 1.94545,1.424913 2.895195,1.424913c1.194786,0 2.098732,-0.6588 2.711632,-1.976456c0.490295,-1.041559 0.735344,-2.282543 0.735344,-3.722424c0,-3.462181 -1.057053,-5.193182 -3.171112,-5.193182l0,0.000002z" />
      </g>
    </g>
    <g
       id="svg_1"
       transform="translate(-2,0)">
      <path
         id="svg_2"
         d="m 136.20091,38.463631 c 0,2.589573 -5.99818,4.688625 -13.3964,4.688625 -7.39946,0 -13.39768,-2.099037 -13.39768,-4.688625 0,-2.589645 5.998,-4.689144 13.39768,-4.689144 7.39817,0 13.3964,2.099873 13.3964,4.689144 z"
         inkscape:connector-curvature="0"
         style="fill:#9cdaf1" />
      <path
         id="svg_3"
         d="m 119.16341,42.97744 0,-3.342232 c 0,-0.431538 -0.0781,-0.792458 -0.20843,-1.097332 0.86422,0.671204 0.92265,2.357819 0.92265,2.357819 l 0,2.144569 c 0.77774,0.06077 1.58087,0.09747 2.40294,0.108536 l -0.0216,-2.133961 c -0.11908,-2.917084 -2.61937,-3.274155 -2.61937,-3.274155 -0.91371,-0.207462 -0.90017,0.251163 -0.80832,0.547379 -0.89642,-1.528793 -3.29899,-1.331341 -3.29899,-1.331341 -0.83375,0.297279 -0.0599,0.833305 -0.0599,0.833305 1.31006,0.476078 1.42898,1.904984 1.42898,1.904984 l 0,2.979149 c 0.72138,0.12365 1.4769,0.225731 2.26259,0.302612 l -5.2e-4,6.68e-4 z"
         inkscape:connector-curvature="0"
         style="fill:#7dbbe6" />
      <path
         id="svg_4"
         d="m 129.70074,36.956497 c 0,0 -2.40287,-0.197533 -3.29922,1.33165 0.0918,-0.296223 0.10568,-0.755295 -0.80817,-0.547688 0,0 -2.50015,0.357147 -2.61914,3.274158 l -0.022,2.137192 c 0.82089,-0.0031 1.62403,-0.03204 2.40302,-0.08463 l 0,-2.171642 c 0,0 0.0587,-1.686623 0.92275,-2.357826 -0.13031,0.30489 -0.20845,0.665718 -0.20845,1.097416 l 0,3.376831 c 0.78372,-0.0686 1.5401,-0.161339 2.26221,-0.275909 l 0,-3.041119 c 0,0 0.11908,-1.428986 1.42883,-1.905056 0,-0.0013 0.77312,-0.537304 -0.0606,-0.834961 l 7.7e-4,0.0016 0,0 z"
         inkscape:connector-curvature="0"
         style="fill:#7dbbe6" />
      <path
         id="svg_5"
         d="m 146.44688,19.027256 0.0353,-0.175114 c -3.93001,-0.785843 -7.96315,-0.793814 -10.40318,-0.692413 0.40068,-1.444176 0.52142,-3.105967 0.52142,-4.959047 0,-2.657722 -0.9984,-4.784002 -2.61958,-6.401717 0.28338,-0.914321 0.66163,-2.94484 -0.37769,-5.544568 0,0 -1.83404,-0.582291 -5.98198,2.193984 -1.62501,-0.405972 -3.35426,-0.606511 -5.08616,-0.606511 -1.90551,0 -3.83103,0.242662 -5.62679,0.735138 -4.28045,-2.920094 -6.17011,-2.321931 -6.17011,-2.321931 -1.23348,3.0846 -0.47081,5.368318 -0.23914,5.935566 -1.44973,1.564608 -2.33486,3.562037 -2.33486,6.010639 0,1.848643 0.21047,3.507199 0.72453,4.94859 -2.46072,-0.08951 -6.34672,-0.05506 -10.136607,0.702717 l 0.03483,0.175192 c 3.812737,-0.76252 7.723207,-0.789 10.168957,-0.696476 0.11321,0.298407 0.2395,0.58778 0.38098,0.867603 -2.41858,0.07785 -6.54839,0.386189 -10.506159,1.502775 l 0.04882,0.171429 c 3.989059,-1.124636 8.154679,-1.425219 10.549789,-1.49856 1.44508,2.693756 4.2941,4.433401 9.36258,4.979654 -0.71934,0.483526 -1.45327,1.305323 -1.75062,2.695715 -0.98029,0.468851 -4.08362,1.61342 -5.94558,-1.58898 0,0 -1.04219,-1.905582 -3.03722,-2.054672 0,0 -1.93513,-0.02972 -0.1335,1.20595 0,0 1.29484,0.610044 2.18825,2.903168 0,0 1.16548,3.91099 6.78972,2.656219 l 0,4.039911 c 0,0 -0.11893,1.428902 -1.42899,1.90498 0,0 -0.77403,0.535877 0.0599,0.833157 0,0 3.63123,0.297798 3.63123,-2.678482 l 0,-4.40526 c 0,0 -0.14405,-1.747101 0.71415,-2.354286 l 0,7.235476 c 0,0 -0.0593,1.72633 -0.95232,2.381283 0,0 -0.59567,1.071224 0.71424,0.773945 0,0 2.50013,-0.357155 2.61937,-3.274155 l 0.0566,-7.3225 0.60093,0 0.0572,7.3225 c 0.11883,2.917 2.61921,3.274155 2.61921,3.274155 1.30943,0.297279 0.71414,-0.773945 0.71414,-0.773945 -0.89287,-0.654953 -0.95229,-2.381283 -0.95229,-2.381283 l 0,-7.173119 c 0.85775,0.667973 0.71422,2.291771 0.71422,2.291771 l 0,4.405121 c 0,2.976433 3.63124,2.678474 3.63124,2.678474 0.83322,-0.297195 0.0599,-0.833073 0.0599,-0.833073 -1.3099,-0.476154 -1.42888,-1.905056 -1.42888,-1.905056 l 0,-5.774517 c 0,-2.251825 -0.9481,-3.444242 -1.8755,-4.073692 5.40532,-0.53603 7.99934,-2.281311 9.19453,-4.993193 2.36768,0.06506 6.62844,0.353539 10.70407,1.503147 l 0.0486,-0.171431 c -4.05241,-1.142986 -8.28519,-1.438761 -10.67681,-1.508415 0.11338,-0.274109 0.21215,-0.558971 0.30001,-0.851955 2.42778,-0.100952 6.48001,-0.0996 10.42509,0.688572 l -0.006,-0.0025 0,0 z"
         inkscape:connector-curvature="0" />
      <path
         id="svg_6"
         d="m 131.31377,13.075966 c 1.16427,1.054675 1.84518,2.328398 1.84518,3.700665 0,6.407436 -4.77641,6.581045 -10.66781,6.581045 -5.89241,0 -10.66827,-0.887314 -10.66827,-6.581045 0,-1.363238 0.67141,-2.62891 1.82126,-3.679379 1.91806,-1.750628 5.16408,-0.823676 8.84692,-0.823676 3.66631,-5.25e-4 6.90127,-0.936953 8.82203,0.801709 l 6.9e-4,6.81e-4 z"
         inkscape:connector-curvature="0"
         style="fill:#f4cbb2" />
      <path
         id="svg_7"
         d="m 118.94264,17.10264 c 0,1.764917 -0.99383,3.19533 -2.21972,3.19533 -1.22587,0 -2.21971,-1.430561 -2.21971,-3.19533 0,-1.76462 0.99384,-3.194654 2.21971,-3.194654 1.22598,0.0014 2.21972,1.430338 2.21972,3.194654 z m 11.90958,0 c 0,1.764917 -0.99382,3.19533 -2.21979,3.19533 -1.22588,0 -2.21977,-1.430561 -2.21977,-3.19533 0,-1.76462 0.99389,-3.194654 2.21977,-3.194654 1.22597,0.0014 2.21979,1.430338 2.21979,3.194654 z"
         inkscape:connector-curvature="0"
         style="fill:#ffffff" />
      <path
         id="svg_8"
         d="m 118.23135,17.143036 c 0,1.176464 -0.66339,2.129665 -1.47992,2.129665 -0.81652,0 -1.47975,-0.953356 -1.47975,-2.129665 0,-1.176914 0.66278,-2.130648 1.47975,-2.130648 0.81601,0 1.47939,0.95343 1.47939,2.130041 l 5.2e-4,6.07e-4 z m 11.90822,0 c 0,1.176464 -0.6633,2.129665 -1.47992,2.129665 -0.81643,0 -1.47975,-0.953356 -1.47975,-2.129665 0,-1.176914 0.66278,-2.130648 1.47975,-2.130648 0.81616,0 1.47947,0.95343 1.47947,2.130041 l 4.5e-4,6.07e-4 z"
         inkscape:connector-curvature="0"
         style="fill:#ad5c51" />
      <circle
         id="svg_9"
         r="0.55505699"
         cy="19.940367"
         cx="122.52453"
         sodipodi:cx="122.52453"
         sodipodi:cy="19.940367"
         sodipodi:rx="0.55505699"
         sodipodi:ry="0.55505699"
         style="fill:#ad5c51"
         d="m 123.07959,19.940367 c 0,0.306549 -0.24851,0.555057 -0.55506,0.555057 -0.30655,0 -0.55506,-0.248508 -0.55506,-0.555057 0,-0.30655 0.24851,-0.555057 0.55506,-0.555057 0.30655,0 0.55506,0.248507 0.55506,0.555057 z" />
      <path
         id="svg_10"
         d="m 121.22923,21.344149 c -0.0328,-0.09313 0.0162,-0.194897 0.10861,-0.227694 0.0929,-0.0328 0.19497,0.01625 0.22756,0.108545 0.14299,0.403412 0.52556,0.674286 0.95237,0.674286 0.4268,0 0.8093,-0.2708 0.95237,-0.674286 0.0328,-0.09298 0.13457,-0.141342 0.22755,-0.108545 0.0931,0.03295 0.14134,0.134567 0.10868,0.227694 -0.1927,0.545359 -0.7112,0.911684 -1.28869,0.911684 -0.57753,0 -1.09476,-0.364525 -1.2877,-0.910553 l -7.5e-4,-0.0011 z"
         inkscape:connector-curvature="0"
         style="fill:#ad5c51" />
      <path
         id="svg_11"
         d="m 108.92134,23.882874 c 0,0.148111 -0.17353,0.26771 -0.38716,0.26771 -0.21347,0 -0.38716,-0.119596 -0.38716,-0.26771 0,-0.14819 0.17369,-0.268164 0.38716,-0.268164 0.21363,0 0.38716,0.119902 0.38716,0.268614 l 0,-4.5e-4 z m 1.07198,0.595299 c 0,0.148111 -0.17353,0.267641 -0.38716,0.267641 -0.21355,0 -0.38717,-0.11953 -0.38717,-0.267641 0,-0.148182 0.1737,-0.268238 0.38717,-0.268238 0.21363,0 0.38716,0.119904 0.38716,0.268618 l 0,-3.8e-4 z m 0.65495,0.774403 c 0,0.148039 -0.17353,0.267635 -0.38717,0.267635 -0.21346,0 -0.38715,-0.119596 -0.38715,-0.267635 0,-0.148254 0.17369,-0.268164 0.38715,-0.268164 0.21364,0 0.38717,0.119825 0.38717,0.268539 l 0,-3.78e-4 0,2e-6 z m 0.59531,0.892879 c 0,0.148111 -0.17354,0.267715 -0.38717,0.267715 -0.21347,0 -0.38716,-0.119602 -0.38716,-0.267715 0,-0.148182 0.17369,-0.268238 0.38716,-0.268238 0.21363,0 0.38717,0.119976 0.38717,0.268612 l 0,-3.74e-4 z m 0.65434,0.833677 c 0,0.148111 -0.17352,0.267637 -0.38716,0.267637 -0.21347,0 -0.38716,-0.11953 -0.38716,-0.267637 0,-0.14819 0.17369,-0.268238 0.38716,-0.268238 0.21364,0 0.38716,0.119907 0.38716,0.268616 l 0,-3.78e-4 z m 0.89417,0.713776 c 0,0.148111 -0.17353,0.267717 -0.38717,0.267717 -0.21347,0 -0.38717,-0.119606 -0.38717,-0.267717 0,-0.148262 0.1737,-0.268164 0.38717,-0.268164 0.21364,0 0.38717,0.119835 0.38717,0.268621 l 0,-4.58e-4 0,0 z m 1.24988,0.476757 c 0,0.148109 -0.17353,0.267706 -0.38718,0.267706 -0.21347,0 -0.38715,-0.119596 -0.38715,-0.267706 0,-0.148266 0.17368,-0.268167 0.38715,-0.268167 0.21365,0 0.38718,0.119827 0.38718,0.268616 l 0,-4.46e-4 0,0 0,-2e-6 z m 1.24477,0 c 0,0.148109 -0.17355,0.267706 -0.38717,0.267706 -0.21349,0 -0.38717,-0.119596 -0.38717,-0.267706 0,-0.148266 0.17368,-0.268167 0.38717,-0.268167 0.21362,0 0.38717,0.119827 0.38717,0.268616 l 0,-4.46e-4 0,0 0,-2e-6 z m 1.26243,-0.206787 c 0,0.148039 -0.17354,0.267641 -0.38717,0.267641 -0.21348,0 -0.38716,-0.119602 -0.38716,-0.267641 0,-0.148335 0.17368,-0.268238 0.38716,-0.268238 0.21363,0 0.38717,0.119825 0.38717,0.268618 l 0,-3.8e-4 z"
         inkscape:connector-curvature="0"
         style="fill:#c3e4d8" />
      <path
         id="svg_12"
         d="m 107.49973,24.677435 -0.3867,1.347214 c 0,0 -0.10088,0.487055 0.3582,0.573336 0.47924,-0.0093 0.43967,-0.457418 0.40649,-0.602972 l -0.37799,-1.317583 0,8e-6 0,-2e-6 z"
         inkscape:connector-curvature="0"
         style="fill:#9cdaf1" />
    </g>
  </g>
</svg>
