<svg width="137" height="37" xmlns="http://www.w3.org/2000/svg">
 <metadata id="metadata3075">image/svg+xml</metadata>
 <g>
  <title>Layer 1</title>
  <g id="layer1">
   <g transform="matrix(0.483695 0 0 -0.483695 81.9525 237.401)" id="g3019">
    <path d="m39.131809,484.656738c0,2.959991 2.4604,5.360992 5.49559,5.360992l63.375988,0c3.035133,0 5.495613,-2.401001 5.495613,-5.360992l0,-64.117004c0,-2.960999 -2.46048,-5.360992 -5.495613,-5.360992l-63.375988,0c-3.035191,0 -5.49559,2.399994 -5.49559,5.360992l0,64.117004z" id="path14" fill-rule="nonzero" fill="#006699"/>
    <path d="m-169.046402,427.329742l31.035599,0l0,10.188995l-19.804199,0l0,38.873993l-11.2314,0l0,-49.062988z" id="path16" fill-rule="evenodd" fill="#000000"/>
    <path d="m-122.297897,427.329742l0,33.792969l-11.232407,0l0,-33.792969l11.232407,0zm-5.616203,38.406982c3.917,0 6.355003,2.595001 6.355003,5.839996c-0.073013,3.315002 -2.438004,5.837006 -6.280304,5.837006c-3.842789,0 -6.354996,-2.522003 -6.354996,-5.837006c0,-3.244995 2.4375,-5.839996 6.206985,-5.839996l0.073013,0l0.000298,0z" id="path18" fill-rule="evenodd" fill="#000000"/>
    <path d="m-117.082603,427.329742l11.232513,0l0,18.871979c0,1.01001 0.072998,2.019012 0.370087,2.740997c0.811501,2.016998 2.659615,4.106995 5.762703,4.106995c4.064903,0 5.690903,-3.099976 5.690903,-7.639984l0,-18.079987l11.2314,0l0,19.376984c0,10.380005 -5.542,15.209991 -12.932098,15.209991c-6.059105,0 -8.719704,-3.386993 -10.197815,-5.694l0.075005,0l0,4.899994l-11.232513,0c0.147499,-3.17099 0,-33.792969 0,-33.792969l-0.000206,0l0.000015,0l0.000008,0z" id="path20" fill-rule="evenodd" fill="#000000"/>
    <path d="m-66.949287,476.392731l-11.232903,0l0,-49.062988l11.232903,0l0,10.955994l2.80719,3.533997l8.793896,-14.48999l13.817902,0l-14.77829,20.97699l12.931591,14.272003l-13.522511,0c0,0 -9.23679,-12.769012 -10.049793,-14.28302l0,28.097015l0.000023,0l-0.000008,0z" id="path22" fill-rule="evenodd" fill="#000000"/>
    <path d="m-11.49179,441.42572c0.14751,0.868011 0.36971,2.53302 0.36971,4.415009c0,8.735992 -4.4346,17.604004 -16.109409,17.604004c-12.488802,0 -18.252401,-9.877014 -18.252401,-18.835022c0,-11.079987 7.02,-18 19.28661,-18c4.877401,0 9.384291,0.720032 13.079591,2.234009l-1.4785,7.417999c-3.0293,-1.005005 -6.132899,-1.506989 -9.975099,-1.506989c-5.246601,0 -9.827702,2.152985 -10.1978,6.742981l23.277299,-0.069977l0,-0.002014zm-23.350492,7.598999c0.295391,2.884003 2.216801,7.138 7.02,7.138c5.097601,0 6.280691,-4.542999 6.280691,-7.138l-13.300692,0z" id="path24" fill-rule="evenodd" fill="#000000"/>
    <path d="m16.603001,476.392731l0,-16.984009l-0.147511,0c-1.62599,2.377014 -5.02589,3.963013 -9.53218,3.963013c-8.64651,0 -16.25731,-6.920013 -16.184111,-18.740997c0,-10.958008 6.8726,-18.094025 15.44431,-18.094025c4.6553,0 9.088901,2.019012 11.305691,5.912018l0.222198,0l0.443312,-5.118988l9.976589,0c-0.147989,2.378998 -0.296909,6.488007 -0.296909,10.523987l0,38.539001l-11.231401,0l0,0l0.000011,0zm0,-33.42099c0,-0.864014 -0.074011,-1.730011 -0.2222,-2.450012c-0.66411,-3.100006 -3.325211,-5.261993 -6.5757,-5.261993c-4.6557,0 -7.6855,3.747986 -7.6855,9.658997c0,5.549988 2.5869,10.018982 7.75879,10.018982c3.47261,0 5.91162,-2.377991 6.5771,-5.332977c0.147511,-0.650024 0.147511,-1.371002 0.147511,-2.019012l0,-4.613983z" id="path26" fill-rule="evenodd" fill="#000000"/>
    <path d="m61.674801,427.36972l0,33.794006l-11.232502,0l0,-33.794006l11.232502,0zm-5.616302,38.40802c3.916992,0 6.355011,2.595001 6.355011,5.837982c-0.073009,3.31601 -2.438019,5.83902 -6.280701,5.83902c-3.842319,0 -6.354507,-2.52301 -6.354507,-5.83902c0,-3.242981 2.4375,-5.837982 6.206989,-5.837982l0.072998,0l0.00021,0z" id="path28" fill-rule="evenodd" fill="#ffffff"/>
    <path d="m67.890106,427.36972l11.232391,0l0,18.872009c0,1.01001 0.073013,2.019012 0.369614,2.740997c0.811996,2.018005 2.660217,4.108002 5.763206,4.108002c4.064484,0 5.690399,-3.098999 5.690399,-7.641998l0,-18.07901l11.231514,0l0,19.377014c0,10.380005 -5.541504,15.209991 -12.93161,15.209991c-6.059601,0 -8.719833,-3.386993 -10.197807,-5.694l0.074997,0l0,4.901001l-11.232391,0c0.1474,-3.17099 0,-33.794006 0,-33.794006l-0.000313,0l-0.000015,0l0.000015,0z" id="path30" fill-rule="evenodd" fill="#ffffff"/>
   </g>
  </g>
 </g>
</svg>