<?xml version="1.0" encoding="UTF-8" standalone="no"?>
<svg
   xmlns:dc="http://purl.org/dc/elements/1.1/"
   xmlns:cc="http://creativecommons.org/ns#"
   xmlns:rdf="http://www.w3.org/1999/02/22-rdf-syntax-ns#"
   xmlns:svg="http://www.w3.org/2000/svg"
   xmlns="http://www.w3.org/2000/svg"
   xmlns:sodipodi="http://sodipodi.sourceforge.net/DTD/sodipodi-0.dtd"
   xmlns:inkscape="http://www.inkscape.org/namespaces/inkscape"
   width="140"
   height="26"
   id="svg3063"
   version="1.1"
   inkscape:version="0.48.2 r9819"
   sodipodi:docname="twitter.svg">
  <metadata
     id="metadata3084">
    <rdf:RDF>
      <cc:Work
         rdf:about="">
        <dc:format>image/svg+xml</dc:format>
        <dc:type
           rdf:resource="http://purl.org/dc/dcmitype/StillImage" />
      </cc:Work>
    </rdf:RDF>
  </metadata>
  <defs
     id="defs3082" />
  <sodipodi:namedview
     pagecolor="#ffffff"
     bordercolor="#666666"
     borderopacity="1"
     objecttolerance="10"
     gridtolerance="10"
     guidetolerance="10"
     inkscape:pageopacity="0"
     inkscape:pageshadow="2"
     inkscape:window-width="1285"
     inkscape:window-height="695"
     id="namedview3080"
     showgrid="false"
     inkscape:zoom="11.566247"
     inkscape:cx="58.6865"
     inkscape:cy="16.426467"
     inkscape:window-x="0"
     inkscape:window-y="0"
     inkscape:window-maximized="0"
     inkscape:current-layer="svg_1" />
  <g
     id="g3065">
    <title
       id="title3067">Layer 1</title>
    <g
       id="svg_1">
      <path
         d="m 87.38884,15.94274 c -0.02032,0.0036 -0.04133,0.0021 -0.06213,0.0057 l 0.107658,-0.01745 c -0.01672,0.0024 -0.02856,0.0092 -0.04552,0.01172 l -8e-6,0 z"
         id="path7"
         clip-path="none"
         inkscape:connector-curvature="0"
         style="fill:#000000" />
      <path
         d="m 14.680616,20.677971 c 0,0.672834 -0.241207,1.249999 -0.724061,1.729986 -0.482749,0.480792 -1.061158,0.720847 -1.736861,0.720847 l -4.8649877,0 c -2.0267996,0 -3.7589042,-0.716034 -5.1973591,-2.149713 C 0.71854705,19.545077 1e-5,17.819443 1e-5,15.799223 l 0,-9.8255911 C 1e-5,5.2811295 0.23952874,4.6996412 0.71855663,4.2278148 1.1975845,3.7566596 1.7828319,3.5205738 2.4736178,3.5205738 c 0.6705719,0 1.24693,0.2405447 1.725258,0.7212891 0.4797278,0.4800635 0.720263,1.056393 0.720263,1.7300525 l 0,3.5577806 6.9264532,0 c 0.628724,0 1.167387,0.2227281 1.616889,0.668846 0.449284,0.445456 0.672961,0.979659 0.672961,1.603965 0,0.622903 -0.223677,1.158467 -0.671244,1.604318 -0.44745,0.445035 -0.985078,0.668137 -1.611166,0.668137 l -6.9339027,0 0,1.721854 c 0,0.675356 0.2357597,1.248961 0.7096382,1.721863 0.4732073,0.471741 1.0478489,0.707893 1.7238962,0.707893 l 4.8660143,0 c 0.675348,0 1.255148,0.240862 1.737896,0.721308 0.482845,0.480803 0.724051,1.057381 0.724051,1.730102 l 0,0 0,0 0,0 0,0 -9e-6,-1.1e-5 z"
         id="path9"
         clip-path="none"
         inkscape:connector-curvature="0"
         style="fill:#000000" />
      <path
         d="m 71.657943,20.677971 c 0,0.672834 -0.241201,1.249999 -0.723593,1.729986 -0.482517,0.480792 -1.061175,0.720847 -1.73665,0.720847 l -2.209738,0 c -2.026765,0 -3.75882,-0.716034 -5.19741,-2.149713 -1.438369,-1.43366 -2.156935,-3.159648 -2.156935,-5.179868 l 0,-9.8255911 c 0,-0.6925024 0.239137,-1.2739907 0.718556,-1.7458171 0.478962,-0.4711552 1.064028,-0.707241 1.754969,-0.707241 0.670406,0 1.247015,0.2405447 1.724938,0.7212891 0.479868,0.4800635 0.720286,1.056393 0.720286,1.7300525 l 0,3.5577806 4.271224,0 c 0.628713,0 1.167366,0.2230637 1.616552,0.668846 0.449617,0.445456 0.673069,0.979659 0.673069,1.603965 0,0.622903 -0.223453,1.158133 -0.670912,1.603971 -0.447562,0.445045 -0.985066,0.668138 -1.61078,0.668138 l -4.279381,0 0,1.722189 c 0,0.675355 0.235706,1.248963 0.709517,1.721854 0.473344,0.471749 1.047984,0.707904 1.723673,0.707904 l 2.21101,0 c 0.675044,0 1.255179,0.240859 1.73769,0.721306 0.482744,0.480803 0.723951,1.057381 0.723951,1.730101 l 0,0 0,0 -2.2e-5,0 -7e-6,0 0,0 -8e-6,0 z"
         id="path11"
         clip-path="none"
         inkscape:connector-curvature="0"
         style="fill:#000000" />
      <path
         d="m 58.796241,20.677971 c 0,0.672834 -0.241319,1.249999 -0.723714,1.729986 -0.482517,0.480792 -1.06116,0.720847 -1.736515,0.720847 l -2.209876,0 c -2.026762,0 -3.758924,-0.716034 -5.196958,-2.149713 -1.438484,-1.434014 -2.157153,-3.159648 -2.157153,-5.179868 l 0,-9.8255911 c 0,-0.6925024 0.239699,-1.2739907 0.718658,-1.7458171 0.479079,-0.4711552 1.063914,-0.707241 1.754967,-0.707241 0.670322,0 1.247018,0.2405447 1.724951,0.7212891 0.479756,0.4800635 0.720272,1.056393 0.720272,1.7300525 l 0,3.5577806 4.271237,0 c 0.628716,0 1.167485,0.2230637 1.61666,0.668846 0.449618,0.445456 0.672835,0.979659 0.672835,1.603965 0,0.622903 -0.223217,1.158133 -0.670783,1.603971 -0.447565,0.445045 -0.985194,0.668138 -1.610936,0.668138 l -4.278676,0 0,1.722189 c 0,0.675355 0.235809,1.248963 0.709726,1.721854 0.473119,0.471749 1.04776,0.707904 1.723452,0.707904 l 2.211248,0 c 0.675023,0 1.255044,0.240859 1.737438,0.721306 0.481482,0.480803 0.723139,1.057381 0.723139,1.730101 l 0,0 0,0 0,0 3e-5,0 z"
         id="path13"
         clip-path="none"
         inkscape:connector-curvature="0"
         style="fill:#000000" />
      <path
         d="m 38.40189,16.271069 c 0,1.890068 -0.672032,3.505577 -2.017585,4.846787 -1.345326,1.340856 -2.965436,2.010948 -4.860529,2.010948 -1.733772,0 -3.259347,-0.584153 -4.577398,-1.753938 -1.299835,1.169795 -2.817055,1.753938 -4.550127,1.753938 -1.894997,0 -3.51601,-0.670092 -4.861681,-2.010948 -1.344875,-1.340865 -2.017142,-2.956719 -2.017142,-4.846787 l 0,-4.789973 c 0,-0.648305 0.225037,-1.192099 0.677072,-1.6330956 0.449857,-0.4413318 0.991955,-0.6619991 1.622739,-0.6619991 0.632273,0 1.173333,0.2206673 1.623536,0.6619991 0.451009,0.4413516 0.676737,0.9861526 0.676737,1.6344686 l 0,4.791697 c 0,0.631812 0.221262,1.166689 0.662978,1.608414 0.442752,0.44137 0.980265,0.660925 1.612193,0.660925 0.614053,0 1.142167,-0.219544 1.584585,-0.660925 0.44229,-0.441717 0.662986,-0.976946 0.662986,-1.608414 l 0,-4.764972 c 0,-0.630145 0.226757,-1.174282 0.677984,-1.6341137 0.45306,-0.4588234 1.005013,-0.6890695 1.655737,-0.6890695 0.632167,0 1.174608,0.2251158 1.627323,0.6760378 0.4526,0.4499244 0.678339,0.9906204 0.678339,1.6204284 l 0,4.7917 c 0,0.631812 0.221481,1.166686 0.663792,1.608412 0.441725,0.441372 0.970751,0.660926 1.584008,0.660926 0.632276,0 1.1699,-0.219545 1.61128,-0.660926 0.442632,-0.441716 0.663661,-0.976946 0.663661,-1.608412 l 0,-4.7917 c 0,-0.629816 0.225748,-1.170504 0.677207,-1.6204284 0.450539,-0.4505767 0.99229,-0.6760378 1.622723,-0.6760378 0.631935,0 1.173697,0.2251158 1.623889,0.6750204 0.450894,0.4499058 0.676278,0.9899308 0.676278,1.6200748 l 0,4.789971 -5.84e-4,0 1e-5,0 -1e-5,-9e-6 z"
         id="path15"
         clip-path="none"
         inkscape:connector-curvature="0"
         style="fill:#000000" />
      <path
         d="m 45.045824,5.4363411 c 0,0.6722883 -0.240516,1.2493082 -0.723264,1.7297169 -0.48251,0.4803992 -1.060813,0.7212891 -1.735144,0.7212891 -0.67627,0 -1.254229,-0.2408899 -1.736976,-0.7212891 -0.481138,-0.4800539 -0.722335,-1.0574286 -0.722335,-1.7297169 0,-0.6733145 0.241207,-1.2496534 0.722335,-1.7300621 0.482747,-0.4810704 1.061043,-0.7209345 1.736976,-0.7209345 0.674675,0 1.252988,0.2398545 1.735144,0.7209345 0.482747,0.4804087 0.723264,1.0571024 0.723264,1.7300621 z"
         id="path17"
         clip-path="none"
         inkscape:connector-curvature="0"
         style="fill:#000000" />
      <path
         d="m 45.045824,20.675094 c 0,0.673988 -0.240516,1.251381 -0.723264,1.732519 -0.48251,0.481137 -1.060813,0.720963 -1.735144,0.720963 -0.67627,0 -1.254229,-0.239818 -1.736976,-0.720963 -0.481138,-0.480792 -0.722335,-1.058531 -0.722335,-1.732519 l 0,-9.035027 c 0,-0.673997 0.241207,-1.251361 0.722335,-1.7321054 0.482747,-0.4810991 1.061043,-0.7216343 1.736976,-0.7216343 0.674675,0 1.252988,0.2405352 1.735144,0.7216343 0.482747,0.4803984 0.723264,1.0581074 0.723264,1.7321054 l 0,9.035027 z"
         id="path19"
         clip-path="none"
         inkscape:connector-curvature="0"
         style="fill:#000000" />
      <path
         d="m 100.90582,11.802834 c 0,0.623258 -0.2241,1.158479 -0.67269,1.604672 -0.447679,0.445036 -0.985091,0.668128 -1.611274,0.668128 l -3.358461,0 c -0.627351,0 -1.160261,0.218624 -1.598774,0.656572 -0.439551,0.436911 -0.658167,0.968 -0.658167,1.593637 l 0,4.526529 c 0,0.624129 -0.223106,1.160961 -0.670654,1.606687 -0.447473,0.447575 -0.983816,0.669517 -1.609799,0.669517 -0.62572,0 -1.162894,-0.221942 -1.609784,-0.668942 -0.447437,-0.445955 -0.670874,-0.980946 -0.670874,-1.606351 l 0,-4.524008 c 0,-1.8739 0.666522,-3.475908 2.000282,-4.805362 1.333994,-1.329139 2.941034,-1.9945804 4.820771,-1.9945804 l 3.356054,0 c 0.626768,0 1.163696,0.2230829 1.61105,0.6692114 0.44791,0.445791 0.67235,0.979986 0.67235,1.6043 l -2e-5,0 0,0 -10e-6,-9e-6 z"
         id="path21"
         clip-path="none"
         inkscape:connector-curvature="0"
         style="fill:#000000" />
      <path
         d="m 79.356839,23.128576 c -1.935433,0 -3.75937,-0.735405 -5.198443,-2.205976 -1.437793,-1.471364 -1.990405,-3.073947 -1.990405,-5.146995 0,0 -0.140255,-6.5926914 7.315603,-6.5926914 5.833682,0 7.609524,4.0977484 7.609524,6.1208264 0,1.608078 -0.735635,2.178826 -2.409837,2.178826 l -7.456085,0 c 0,0 -0.269959,1.706033 3.126641,1.706033 l 4.255195,0 c 1.087738,0 1.969584,0.88184 1.969584,1.969924 0,1.088087 -0.881845,1.969698 -1.969584,1.969698 l -5.252193,0 0,3.44e-4 1.3e-5,1e-5 -1.3e-5,0 z m -2.080026,-8.78596 4.895481,0 c 0,-1.608423 -2.434909,-1.608423 -2.434909,-1.608423 0,0 -2.460572,-3.45e-4 -2.460572,1.608423 z"
         id="path23"
         clip-path="none"
         inkscape:connector-curvature="0"
         style="fill:#000000" />
      <path
         id="path25"
         d="m 139.8425,11.96889 c -1.32518,0.2262 -3.24542,-0.009 -4.26351,-0.43239 2.11503,-0.17509 3.54656,-1.13633 4.09861,-2.44131 -0.76236,0.46917 -3.12952,0.98016 -4.43557,0.49311 -0.0645,-0.30694 -0.13504,-0.59923 -0.20672,-0.86366 -0.99417,-3.65944 -4.40451,-6.60852 -7.97495,-6.25192 0.28679,-0.11684 0.57953,-0.22546 0.87469,-0.32445 0.39074,-0.14079 2.69813,-0.51742 2.33607,-1.33107 -0.3071,-0.71752 -3.12713,0.53957 -3.65768,0.70502 0.70142,-0.26265 1.86051,-0.71574 1.98359,-1.52224 -1.07305,0.14722 -2.12698,0.65534 -2.94073,1.39395 0.29514,-0.31624 0.51742,-0.7018 0.56402,-1.11774 -2.86306,1.83168 -4.53595,5.52152 -5.88861,9.10341 -1.06253,-1.0316 -2.00663,-1.84383 -2.85098,-2.295859 -2.37025,-1.27067 -5.20535,-2.59852 -9.65408,-4.25224 -0.13692,1.47327 0.72748,3.43396 3.21663,4.73571 -0.5388,-0.07288 -1.52509,0.09043 -2.31267,0.27765 0.32047,1.68983 1.37011,3.0802 4.21309,3.752 -1.29913,0.0854 -1.97151,0.38311 -2.57925,1.01906 0.59126,1.17498 2.03675,2.55607 4.63226,2.27192 -2.8885,1.24679 -1.17796,3.55443 1.17247,3.20994 -4.00743,4.145809 -10.32755,3.83823 -13.95689,0.373779 9.47412,12.92399 30.07109,7.64241 33.13965,-4.805759 2.30142,0.01864 3.6517,-0.79679 4.49054,-1.69692 l 0,0 0,0 0,10e-6 3e-5,0 0,0 -1e-5,0 z"
         clip-path="none"
         inkscape:connector-curvature="0"
         style="fill:#33ccff" />
    </g>
  </g>
</svg>
