<svg width="140" height="26" xmlns="http://www.w3.org/2000/svg">
 <g>
  <title>Layer 1</title>
  <g id="svg_1">
   <path d="m87.38884,15.94274c-0.020317,0.003579 -0.041328,0.00214 -0.062126,0.00573l0.107658,-0.01745c-0.016724,0.00239 -0.028564,0.0092 -0.045525,0.011721l-0.000008,0z" id="path7" clip-path="none" fill="black"/>
   <path d="m15.30955,21.004459c0,0.70166 -0.25154,1.303551 -0.75508,1.8041c-0.50343,0.50139 -1.10662,0.75173 -1.81127,0.75173l-5.07341,0c-2.11363,0 -3.91994,-0.74671 -5.42002,-2.24181c-1.50044,-1.495449 -2.24976,-3.29501 -2.24976,-5.401779l0,-10.246531c0,-0.72217 0.24978,-1.32857 0.74933,-1.82061c0.49955,-0.49134 1.10987,-0.73754 1.83025,-0.73754c0.6993,0 1.30035,0.25085 1.79917,0.75219c0.50028,0.50063 0.75112,1.10165 0.75112,1.80417l0,3.7102l7.22319,0c0.65566,0 1.2174,0.23227 1.68616,0.6975c0.46853,0.46454 0.70179,1.021629 0.70179,1.67268c0,0.64959 -0.23326,1.208099 -0.7,1.67305c-0.46662,0.4641 -1.027281,0.69676 -1.68019,0.69676l-7.23096,0l0,1.79562c0,0.70429 0.24586,1.302469 0.74004,1.79563c0.49348,0.491951 1.09274,0.73822 1.79775,0.73822l5.07448,0c0.70428,0 1.30892,0.251181 1.81235,0.752211c0.50353,0.5014 0.75507,1.10268 0.75507,1.80422l0,0l0,0l0,0l0,0l-0.00001,-0.000011z" id="path9" clip-path="none" fill="black"/>
   <path d="m74.727852,21.004459c0,0.70166 -0.251534,1.303551 -0.754593,1.8041c-0.503189,0.50139 -1.106636,0.75173 -1.81105,0.75173l-2.304405,0c-2.113594,0 -3.919853,-0.74671 -5.420074,-2.24181c-1.499989,-1.495079 -2.24934,-3.29501 -2.24934,-5.401779l0,-10.246531c0,-0.72217 0.249382,-1.32857 0.74934,-1.82061c0.499481,-0.49134 1.109612,-0.73754 1.830154,-0.73754c0.699127,0 1.300438,0.25085 1.798836,0.75219c0.500427,0.50063 0.751144,1.10165 0.751144,1.80417l0,3.7102l4.454208,0c0.655647,0 1.217377,0.23262 1.685806,0.6975c0.46888,0.46454 0.701904,1.021629 0.701904,1.67268c0,0.64959 -0.233025,1.20775 -0.699654,1.672689c-0.466736,0.46411 -1.027267,0.69676 -1.679787,0.69676l-4.462715,0l0,1.79597c0,0.704289 0.245804,1.30247 0.739914,1.795621c0.493622,0.491959 1.09288,0.73823 1.797516,0.73823l2.305733,0c0.703964,0 1.308952,0.251179 1.812134,0.752209c0.503426,0.5014 0.754967,1.10268 0.754967,1.80422l0,0l0,0l-0.000023,0l-0.000008,0l0,0l-0.000008,0z" id="path11" clip-path="none" fill="black"/>
   <path d="m61.31514,21.004459c0,0.70166 -0.251659,1.303551 -0.754719,1.8041c-0.503189,0.50139 -1.106621,0.75173 -1.810909,0.75173l-2.30455,0c-2.11359,0 -3.91996,-0.74671 -5.419601,-2.24181c-1.500111,-1.495449 -2.249569,-3.29501 -2.249569,-5.401779l0,-10.246531c0,-0.72217 0.249969,-1.32857 0.749447,-1.82061c0.499603,-0.49134 1.109493,-0.73754 1.830151,-0.73754c0.699039,0 1.300442,0.25085 1.798851,0.75219c0.500309,0.50063 0.751129,1.10165 0.751129,1.80417l0,3.7102l4.45422,0c0.655651,0 1.217503,0.23262 1.685921,0.6975c0.46888,0.46454 0.70166,1.021629 0.70166,1.67268c0,0.64959 -0.23278,1.20775 -0.69952,1.672689c-0.46674,0.46411 -1.027401,0.69676 -1.679951,0.69676l-4.461979,0l0,1.79597c0,0.704289 0.245911,1.30247 0.740131,1.795621c0.493389,0.491959 1.092648,0.73823 1.797287,0.73823l2.305981,0c0.703941,0 1.308811,0.251179 1.811871,0.752209c0.50211,0.5014 0.75412,1.10268 0.75412,1.80422l0,0l0,0l0,0l0.000031,0z" id="path13" clip-path="none" fill="black"/>
   <path d="m40.04707,16.40876c0,1.971041 -0.700821,3.65576 -2.104019,5.05443c-1.402962,1.3983 -3.09248,2.097099 -5.06876,2.097099c-1.80805,0 -3.398981,-0.609179 -4.7735,-1.829079c-1.35552,1.21991 -2.93774,1.829079 -4.74506,1.829079c-1.976179,0 -3.666639,-0.698799 -5.06996,-2.097099c-1.402491,-1.39831 -2.103559,-3.083389 -2.103559,-5.05443l0,-4.99518c0,-0.67608 0.234678,-1.24317 0.706079,-1.70306c0.46913,-0.460239 1.034451,-0.69036 1.692259,-0.69036c0.659361,0 1.2236,0.230121 1.69309,0.69036c0.470331,0.46026 0.70573,1.0284 0.70573,1.704491l0,4.996979c0,0.65888 0.23074,1.216671 0.69138,1.67732c0.46172,0.460279 1.022261,0.68924 1.681261,0.68924c0.64036,0 1.191099,-0.228949 1.65247,-0.68924c0.461239,-0.46064 0.691389,-1.018799 0.691389,-1.67732l0,-4.96911c0,-0.65714 0.236471,-1.224589 0.707031,-1.70412c0.472469,-0.47848 1.048069,-0.71859 1.726669,-0.71859c0.65925,0 1.22493,0.23476 1.697041,0.705c0.471989,0.4692 0.707399,1.03306 0.707399,1.68985l0,4.996981c0,0.65888 0.23097,1.216669 0.69223,1.677319c0.460649,0.460281 1.012339,0.689241 1.651869,0.689241c0.659363,0 1.22002,-0.228951 1.680309,-0.689241c0.461594,-0.46064 0.692093,-1.018799 0.692093,-1.677319l0,-4.996981c0,-0.6568 0.23542,-1.22065 0.706219,-1.68985c0.469841,-0.46988 1.034801,-0.705 1.692242,-0.705c0.659008,0 1.22398,0.23476 1.693459,0.703939c0.470211,0.46918 0.70525,1.03234 0.70525,1.689481l0,4.995179l-0.00061,0l0.000011,0l-0.000011,-0.00001z" id="path15" clip-path="none" fill="black"/>
   <path d="m46.975639,5.10986c0,0.70109 -0.25082,1.30283 -0.75425,1.80382c-0.503181,0.50098 -1.106258,0.75219 -1.809479,0.75219c-0.705242,0 -1.307961,-0.25121 -1.81139,-0.75219c-0.501751,-0.50062 -0.753281,-1.10273 -0.753281,-1.80382c0,-0.70216 0.251541,-1.30319 0.753281,-1.80418c0.503429,-0.50168 1.106499,-0.75182 1.81139,-0.75182c0.703579,0 1.306667,0.25013 1.809479,0.75182c0.503429,0.50099 0.75425,1.10239 0.75425,1.80418z" id="path17" clip-path="none" fill="black"/>
   <path d="m46.975639,21.001459c0,0.702862 -0.25082,1.304991 -0.75425,1.806742c-0.503181,0.501749 -1.106258,0.75185 -1.809479,0.75185c-0.705242,0 -1.307961,-0.250092 -1.81139,-0.75185c-0.501751,-0.50139 -0.753281,-1.10388 -0.753281,-1.806742l0,-9.422099c0,-0.70287 0.251541,-1.30497 0.753281,-1.80631c0.503429,-0.50171 1.106499,-0.75255 1.81139,-0.75255c0.703579,0 1.306667,0.25084 1.809479,0.75255c0.503429,0.500979 0.75425,1.103439 0.75425,1.80631l0,9.422099z" id="path19" clip-path="none" fill="black"/>
   <path d="m105.228752,11.7491c0,0.649961 -0.233711,1.208111 -0.701523,1.67342c-0.466858,0.4641 -1.02729,0.696751 -1.680298,0.696751l-3.502342,0c-0.654228,0 -1.209969,0.227989 -1.667267,0.6847c-0.458382,0.455629 -0.686363,1.00947 -0.686363,1.661909l0,4.720451c0,0.650869 -0.232666,1.210699 -0.699387,1.67552c-0.466644,0.466749 -1.025963,0.6982 -1.678764,0.6982c-0.652527,0 -1.212715,-0.231451 -1.678749,-0.697601c-0.466606,-0.465059 -0.699615,-1.02297 -0.699615,-1.675169l0,-4.717821c0,-1.95418 0.695076,-3.62482 2.085976,-5.01123c1.391144,-1.38608 3.067032,-2.08003 5.027298,-2.08003l3.499832,0c0.653618,0 1.213547,0.23264 1.680069,0.697881c0.467094,0.46489 0.701164,1.02197 0.701164,1.67303l-0.000023,0l0,0l-0.000008,-0.00001z" id="path21" clip-path="none" fill="black"/>
   <path d="m82.756577,23.560051c-2.018349,0 -3.920425,-0.766911 -5.42115,-2.300482c-1.49939,-1.534399 -2.075676,-3.205639 -2.075676,-5.367499c0,0 -0.146263,-6.87513 7.629013,-6.87513c6.083603,0 7.935524,4.2733 7.935524,6.38305c0,1.67697 -0.767151,2.272169 -2.513077,2.272169l-7.775513,0c0,0 -0.281525,1.779121 3.26059,1.779121l4.437492,0c1.134338,0 2.053963,0.919619 2.053963,2.054319c0,1.134701 -0.919624,2.054081 -2.053963,2.054081l-5.477203,0l0,0.000359l0.000015,0.000011l-0.000015,0zm-2.169136,-9.162361l5.105209,0c0,-1.67733 -2.539223,-1.67733 -2.539223,-1.67733c0,0 -2.565987,-0.00036 -2.565987,1.67733z" id="path23" clip-path="none" fill="black"/>
   <path id="path25" d="m139.842499,11.96889c-1.32518,0.2262 -3.245422,-0.00897 -4.263504,-0.43239c2.115021,-0.17509 3.546555,-1.13633 4.098602,-2.44131c-0.76236,0.46917 -3.129517,0.98016 -4.435562,0.49311c-0.064529,-0.30694 -0.13504,-0.59923 -0.206726,-0.86366c-0.994171,-3.65944 -4.40451,-6.60852 -7.974945,-6.25192c0.286789,-0.11684 0.579529,-0.22546 0.874687,-0.32445c0.390739,-0.14079 2.698128,-0.51742 2.336067,-1.33107c-0.307098,-0.71752 -3.127129,0.53957 -3.657677,0.70502c0.701416,-0.26265 1.860512,-0.71574 1.983589,-1.52224c-1.073051,0.14722 -2.126984,0.65534 -2.940727,1.39395c0.295135,-0.31624 0.517418,-0.7018 0.564018,-1.11774c-2.86306,1.83168 -4.53595,5.52152 -5.888611,9.10341c-1.062531,-1.0316 -2.00663,-1.84383 -2.850983,-2.295859c-2.370247,-1.27067 -5.205345,-2.59852 -9.654076,-4.25224c-0.136925,1.47327 0.727478,3.43396 3.216629,4.73571c-0.538803,-0.07288 -1.525093,0.09043 -2.312668,0.27765c0.320465,1.68983 1.37011,3.0802 4.213089,3.752c-1.299133,0.0854 -1.971512,0.38311 -2.579254,1.01906c0.591263,1.17498 2.036751,2.55607 4.632263,2.27192c-2.888504,1.24679 -1.177963,3.55443 1.17247,3.20994c-4.007431,4.145809 -10.327553,3.83823 -13.956894,0.373779c9.474121,12.92399 30.071098,7.64241 33.139656,-4.805759c2.301422,0.01864 3.651703,-0.79679 4.49054,-1.69692l0,0l0,0l0,0.00001l0.000031,0l0,0l-0.000015,0z" clip-path="none" fill="#33ccff"/>
  </g>
 </g>
</svg>