<svg xmlns="http://www.w3.org/2000/svg" width="137" height="26"><text style="line-height:125%;-inkscape-font-specification:Eurostile" x="-.914" y="21.947" transform="scale(.997 1.003)" font-size="46.787" letter-spacing="0" word-spacing="0" font-family="Eurostile"><tspan x="-.914" y="21.947" style="-inkscape-font-specification:Eurostile Bold" font-size="29.242" font-weight="bold">contact</tspan></text><g fill="#44719d"><path d="M117.116 15.235c1.029.855 1.827.695 2.646.018l10.765-8.993 6.247-5.22c-.388-.542-1.023-.898-1.737-.898h-33.174c-.714 0-1.35.356-1.737.898l6.247 5.22 10.743 8.975z"/><path d="M112.621 13.701l-6.248-5.219-6.644-5.551v20.687c0 .26.047.511.134.742l6.51-5.439 6.248-5.219z"/><path d="M122.95 14.812l-3.331 2.783c-.723.544-1.441.662-2.327.009l-3.342-2.792-7.577 6.33-5.323 4.447c.251.105.525.162.813.162h33.174c.287 0 .561-.058.813-.162l-5.323-4.447-7.578-6.33z"/><path d="M130.528 8.482l-6.248 5.219 6.248 5.219 6.51 5.439c.086-.231.134-.481.134-.742v-20.687l-6.644 5.551z"/></g></svg>