<svg xmlns="http://www.w3.org/2000/svg" width="139" height="26"><g style="line-height:125%;-inkscape-font-specification:Eurostile" font-size="29.242" letter-spacing="0" word-spacing="0" font-family="Eurostile" font-weight="bold"><path d="M9.364 16.791h3.245v.473l-.199 2.077c-.398 1.891-2.343 2.836-5.835 2.836-2.562 0-4.265-.463-5.109-1.39-.844-.936-1.267-2.813-1.267-5.63 0-2.75.422-4.603 1.267-5.558.844-.955 2.486-1.433 4.924-1.433 2.353 0 3.947.349 4.782 1.046.835.688 1.252 2.001 1.252 3.939h-3.231c0-1.595-.916-2.392-2.747-2.392-1.3 0-2.116.253-2.448.759-.332.506-.498 1.748-.498 3.725 0 1.91.18 3.113.541 3.61.37.487 1.267.731 2.69.731 1.12 0 1.836-.167 2.149-.501.323-.344.484-1.108.484-2.292" style="-inkscape-font-specification:Eurostile Bold"/><path d="M20.962 8.167c2.628 0 4.35.425 5.166 1.275.816.84 1.224 2.622 1.224 5.343 0 3.037-.398 5.028-1.195 5.974-.797.945-2.476 1.418-5.038 1.418-2.78 0-4.583-.439-5.408-1.318-.816-.879-1.224-2.813-1.224-5.802 0-2.875.403-4.742 1.21-5.601.806-.859 2.562-1.289 5.266-1.289m-.028 2.593c-1.357 0-2.22.248-2.59.745-.37.487-.555 1.633-.555 3.438 0 2.063.176 3.352.527 3.868.351.516 1.229.774 2.633.774 1.357 0 2.211-.272 2.562-.817.361-.544.541-1.853.541-3.925 0-1.748-.185-2.865-.555-3.352-.37-.487-1.224-.731-2.562-.731" style="-inkscape-font-specification:Eurostile Bold"/><path d="M30.071 8.325h3.231l-.128 2.306.071.014c.636-1.652 2.059-2.478 4.269-2.478 3.216 0 4.824 1.509 4.824 4.527v9.326h-3.259v-8.767l-.071-.96c-.152-1.022-.949-1.533-2.391-1.533-2.192 0-3.287 1.046-3.287 3.137v8.122h-3.259v-13.695" style="-inkscape-font-specification:Eurostile Bold"/><path d="M54.335 8.325v2.493h-5.237v6.876c0 1.27.479 1.905 1.437 1.905 1.053 0 1.58-.769 1.58-2.306v-.544h2.775v.688c0 .63-.019 1.17-.057 1.619-.18 2.091-1.727 3.137-4.639 3.137-2.903 0-4.355-1.342-4.355-4.025v-7.349h-1.765v-2.493h1.765v-3.066h3.259v3.066h5.237" style="-inkscape-font-specification:Eurostile Bold"/><path d="M60.099 12.293h-3.33c0-1.643.38-2.741 1.139-3.295.759-.554 2.263-.831 4.511-.831 2.448 0 4.103.339 4.967 1.017.863.678 1.295 1.972 1.295 3.882v8.953h-3.259l.157-1.877-.085-.014c-.626 1.366-2.073 2.049-4.341 2.049-3.292 0-4.938-1.409-4.938-4.226 0-2.846 1.684-4.269 5.052-4.269 2.249 0 3.615.52 4.099 1.561h.057v-2.22c0-1.07-.185-1.776-.555-2.12-.37-.353-1.129-.53-2.277-.53-1.66 0-2.491.64-2.491 1.92m2.177 3.596c-1.841 0-2.761.64-2.761 1.92 0 .888.19 1.471.569 1.748.38.277 1.176.415 2.391.415 1.983 0 2.974-.673 2.974-2.02 0-1.375-1.058-2.063-3.174-2.063" style="-inkscape-font-specification:Eurostile Bold"/><path d="M80.578 16.791h3.245v.473l-.199 2.077c-.398 1.891-2.343 2.836-5.835 2.836-2.562 0-4.265-.463-5.109-1.39-.844-.936-1.267-2.813-1.267-5.63 0-2.75.422-4.603 1.267-5.558.844-.955 2.486-1.433 4.924-1.433 2.353 0 3.947.349 4.782 1.046.835.688 1.252 2.001 1.252 3.939h-3.231c0-1.595-.916-2.392-2.747-2.392-1.3 0-2.116.253-2.448.759-.332.506-.498 1.748-.498 3.725 0 1.91.18 3.113.541 3.61.37.487 1.267.731 2.69.731 1.12 0 1.836-.167 2.149-.501.323-.344.484-1.108.484-2.292" style="-inkscape-font-specification:Eurostile Bold"/><path d="M94.98 8.325v2.493h-5.237v6.876c0 1.27.479 1.905 1.437 1.905 1.053 0 1.58-.769 1.58-2.306v-.544h2.775v.688c0 .63-.019 1.17-.057 1.619-.18 2.091-1.727 3.137-4.639 3.137-2.903 0-4.355-1.342-4.355-4.025v-7.349h-1.765v-2.493h1.765v-3.066h3.259v3.066h5.237" style="-inkscape-font-specification:Eurostile Bold"/></g><g fill="#44719d"><path d="M118.85 15.484c1.029.855 1.827.695 2.646.018l10.765-8.993 6.247-5.22c-.388-.542-1.023-.898-1.737-.898h-33.174c-.714 0-1.35.356-1.737.898l6.247 5.22 10.743 8.975z"/><path d="M114.355 13.95l-6.248-5.219-6.644-5.551v20.687c0 .26.047.511.134.742l6.51-5.439 6.248-5.219z"/><path d="M124.683 15.06l-3.331 2.783c-.723.544-1.441.662-2.327.009l-3.342-2.792-7.577 6.33-5.323 4.447c.251.105.525.162.813.162h33.174c.287 0 .561-.058.813-.162l-5.323-4.447-7.578-6.33z"/><path d="M132.261 8.73l-6.248 5.219 6.248 5.219 6.51 5.439c.086-.231.134-.481.134-.742v-20.687l-6.644 5.551z"/></g></svg>