<svg width="151" height="47" xmlns="http://www.w3.org/2000/svg"><title>Layer 1</title><g><path d="M12.429 15.806c1.471 0 3.171-.368 5.101-1.103v4.734c-.429.153-1.042.322-1.838.506.245.705.368 1.363.368 1.976 0 1.961-.59 3.669-1.769 5.124-1.18 1.455-2.704 2.321-4.573 2.597-1.225.184-1.838.843-1.838 1.976 0 .398.199.797.597 1.195.521.582 1.287.95 2.298 1.103 4.382.674 6.572 2.497 6.572 5.469 0 4.749-2.834 7.124-8.502 7.124-2.329 0-4.244-.414-5.745-1.241-1.9-1.042-2.849-2.681-2.849-4.918 0-2.574 1.425-4.335 4.274-5.285v-.092c-1.042-.643-1.562-1.624-1.562-2.941 0-1.716.49-2.788 1.471-3.217v-.092c-.98-.337-1.854-1.103-2.62-2.298-.858-1.287-1.287-2.665-1.287-4.136 0-2.206.781-4.044 2.344-5.515 1.501-1.379 3.294-2.068 5.377-2.068 1.501 0 2.895.368 4.182 1.103zm.184 24.174c0-1.563-1.287-2.344-3.861-2.344-2.482 0-3.723.812-3.723 2.436 0 1.593 1.348 2.39 4.044 2.39 2.359 0 3.539-.827 3.539-2.482zm-7.077-17.648c0 2.114.965 3.171 2.895 3.171 1.869 0 2.803-1.073 2.803-3.217 0-.889-.214-1.654-.643-2.298-.521-.705-1.241-1.057-2.16-1.057-1.93 0-2.895 1.134-2.895 3.401z"/><path d="M22.403 11.348c-.889 0-1.647-.337-2.275-1.011-.628-.674-.942-1.47-.942-2.39 0-.95.314-1.762.942-2.436.628-.674 1.386-1.011 2.275-1.011.858 0 1.601.337 2.229 1.011.628.674.942 1.486.942 2.436 0 .919-.314 1.716-.942 2.39-.628.674-1.371 1.011-2.229 1.011z"/><path d="M19.784 35.338c.061-.613.092-1.654.092-3.125v-14.293c0-1.44-.03-2.436-.092-2.987h5.193c-.061.582-.092 1.547-.092 2.895v14.109c0 1.563.031 2.696.092 3.401h-5.193z"/><path d="M34.487 14.932h3.998v4.458c-.153 0-.437-.015-.85-.046-.414-.031-.804-.046-1.172-.046h-1.976v8.548c0 2.053.674 3.079 2.022 3.079.95 0 1.808-.26 2.574-.781v4.596c-1.134.613-2.497.919-4.09.919-2.237 0-3.784-.797-4.642-2.39-.643-1.195-.965-3.079-.965-5.653v-8.226h.046v-.092l-.689-.046c-.398 0-.919.046-1.563.138v-4.458h2.252v-1.792c0-.858-.046-1.547-.138-2.068h5.331c-.092.582-.138 1.241-.138 1.976v1.884z"/><path d="M50.629 14.795c-1.317 0-2.696.46-4.136 1.379v-8.042c0-1.746.031-2.895.092-3.447h-5.239c.092.49.138 1.639.138 3.447v24.312c0 1.409-.046 2.375-.138 2.895h5.331c0-.092-.03-.467-.092-1.126-.061-.659-.092-1.249-.092-1.769v-11.306c1.072-1.011 2.114-1.516 3.125-1.516 1.164 0 2.053.582 2.666 1.746.459.919.689 2.068.689 3.447l-.046 6.204c0 1.042-.076 2.482-.23 4.32h5.561c-.122-.766-.184-2.175-.184-4.228v-6.296c0-2.666-.597-4.933-1.792-6.802-1.348-2.145-3.232-3.217-5.653-3.217z"/><path d="M66.9 35.522c-2.421 0-4.213-1.073-5.377-3.217-.919-1.746-1.379-4.029-1.379-6.847v-6.296c0-2.084-.061-3.493-.184-4.228h5.515c-.092.674-.153 2.114-.184 4.32l-.046 6.204c0 1.746.199 3.003.597 3.768.46.95 1.302 1.425 2.528 1.425.858 0 1.823-.506 2.895-1.516v-11.306c0-.521-.031-1.118-.092-1.792-.062-.674-.092-1.042-.092-1.103h5.331c-.061.521-.092 1.486-.092 2.895v14.063c0 1.807.031 2.956.092 3.447h-5.009v-1.654c-1.409 1.225-2.911 1.838-4.504 1.838z"/><path d="M87.583 35.475c-1.654 0-3.033-.597-4.136-1.792v1.654h-4.872c.092-.521.138-1.486.138-2.895v-24.312c0-1.808-.046-2.957-.138-3.447h5.239c-.062.551-.092 1.7-.092 3.447v7.997c1.409-.888 2.788-1.333 4.136-1.333 2.42 0 4.32 1.072 5.699 3.217 1.164 1.869 1.746 4.136 1.746 6.802 0 2.727-.613 5.101-1.838 7.123-1.471 2.359-3.432 3.539-5.883 3.539zm-.689-15.855c-1.011 0-2.068.505-3.171 1.516v7.951c.98.95 1.945 1.425 2.895 1.425 1.195 0 2.099-.659 2.712-1.976.49-1.042.735-2.283.735-3.722 0-3.462-1.057-5.193-3.171-5.193z"/></g><g><path d="M136.201 38.464c0 2.59-5.998 4.689-13.396 4.689-7.399 0-13.398-2.099-13.398-4.689s5.998-4.689 13.398-4.689c7.398 0 13.396 2.1 13.396 4.689z" fill="#9CDAF1"/><path d="M119.163 42.977v-3.342c0-.432-.078-.792-.208-1.097.864.671.923 2.358.923 2.358v2.145c.778.061 1.581.097 2.403.109l-.022-2.134c-.119-2.917-2.619-3.274-2.619-3.274-.914-.207-.9.251-.808.547-.896-1.529-3.299-1.331-3.299-1.331-.834.297-.06.833-.06.833 1.31.476 1.429 1.905 1.429 1.905v2.979c.721.124 1.477.226 2.263.303l-.001.001z" fill="#7DBBE6"/><path d="M129.701 36.956s-2.403-.198-3.299 1.332c.092-.296.106-.755-.808-.548 0 0-2.5.357-2.619 3.274l-.022 2.137c.821-.003 1.624-.032 2.403-.085v-2.172s.059-1.687.923-2.358c-.13.305-.208.666-.208 1.097v3.377c.784-.069 1.54-.161 2.262-.276v-3.041s.119-1.429 1.429-1.905c0-.001.773-.537-.061-.835l.001.002z" fill="#7DBBE6"/><path d="M146.447 19.027l.035-.175c-3.93-.786-7.963-.794-10.403-.692.401-1.444.521-3.106.521-4.959 0-2.658-.998-4.784-2.62-6.402.283-.914.662-2.945-.378-5.545 0 0-1.834-.582-5.982 2.194-1.625-.406-3.354-.607-5.086-.607-1.906 0-3.831.243-5.627.735-4.28-2.92-6.17-2.322-6.17-2.322-1.233 3.085-.471 5.368-.239 5.936-1.45 1.565-2.335 3.562-2.335 6.011 0 1.849.21 3.507.725 4.949-2.461-.09-6.347-.055-10.137.703l.035.175c3.813-.763 7.723-.789 10.169-.696.113.298.24.588.381.868-2.419.078-6.548.386-10.506 1.503l.049.171c3.989-1.125 8.155-1.425 10.55-1.499 1.445 2.694 4.294 4.433 9.363 4.98-.719.484-1.453 1.305-1.751 2.696-.98.469-4.084 1.613-5.946-1.589 0 0-1.042-1.906-3.037-2.055 0 0-1.935-.03-.134 1.206 0 0 1.295.61 2.188 2.903 0 0 1.165 3.911 6.79 2.656v4.04s-.119 1.429-1.429 1.905c0 0-.774.536.06.833 0 0 3.631.298 3.631-2.678v-4.405s-.144-1.747.714-2.354v7.235s-.059 1.726-.952 2.381c0 0-.596 1.071.714.774 0 0 2.5-.357 2.619-3.274l.057-7.322h.601l.057 7.322c.119 2.917 2.619 3.274 2.619 3.274 1.309.297.714-.774.714-.774-.893-.655-.952-2.381-.952-2.381v-7.173c.858.668.714 2.292.714 2.292v4.405c0 2.976 3.631 2.678 3.631 2.678.833-.297.06-.833.06-.833-1.31-.476-1.429-1.905-1.429-1.905v-5.775c0-2.252-.948-3.444-1.876-4.074 5.405-.536 7.999-2.281 9.195-4.993 2.368.065 6.628.354 10.704 1.503l.049-.171c-4.052-1.143-8.285-1.439-10.677-1.508.113-.274.212-.559.3-.852 2.428-.101 6.48-.1 10.425.689l-.006-.002z"/><path d="M131.314 13.076c1.164 1.055 1.845 2.328 1.845 3.701 0 6.407-4.776 6.581-10.668 6.581-5.892 0-10.668-.887-10.668-6.581 0-1.363.671-2.629 1.821-3.679 1.918-1.751 5.164-.824 8.847-.824 3.666-.001 6.901-.937 8.822.802l.001.001z" fill="#F4CBB2"/><path d="M118.943 17.103c0 1.765-.994 3.195-2.22 3.195-1.226 0-2.22-1.431-2.22-3.195 0-1.765.994-3.195 2.22-3.195 1.226.001 2.22 1.43 2.22 3.195zm11.91 0c0 1.765-.994 3.195-2.22 3.195-1.226 0-2.22-1.431-2.22-3.195 0-1.765.994-3.195 2.22-3.195 1.226.001 2.22 1.43 2.22 3.195z" fill="#fff"/><path d="M118.231 17.143c0 1.176-.663 2.13-1.48 2.13s-1.48-.953-1.48-2.13.663-2.131 1.48-2.131c.816 0 1.479.953 1.479 2.13l.001.001zm11.908 0c0 1.176-.663 2.13-1.48 2.13-.816 0-1.48-.953-1.48-2.13s.663-2.131 1.48-2.131c.816 0 1.479.953 1.479 2.13v.001z" fill="#AD5C51"/><circle r=".555" cy="19.94" cx="122.525" fill="#AD5C51"/><path d="M121.229 21.344c-.033-.093.016-.195.109-.228s.195.016.228.109c.143.403.526.674.952.674.427 0 .809-.271.952-.674.033-.093.135-.141.228-.109.093.033.141.135.109.228-.193.545-.711.912-1.289.912s-1.095-.365-1.288-.911l-.001-.001z" fill="#AD5C51"/><path d="M108.921 23.883c0 .148-.174.268-.387.268-.213 0-.387-.12-.387-.268 0-.148.174-.268.387-.268.214 0 .387.12.387.269zm1.072.595c0 .148-.174.268-.387.268-.214 0-.387-.12-.387-.268 0-.148.174-.268.387-.268.214 0 .387.12.387.269zm.655.774c0 .148-.174.268-.387.268-.213 0-.387-.12-.387-.268 0-.148.174-.268.387-.268.214 0 .387.12.387.269zm.595.893c0 .148-.174.268-.387.268-.213 0-.387-.12-.387-.268 0-.148.174-.268.387-.268.214 0 .387.12.387.269zm.654.834c0 .148-.174.268-.387.268-.213 0-.387-.12-.387-.268 0-.148.174-.268.387-.268.214 0 .387.12.387.269zm.894.714c0 .148-.174.268-.387.268-.213 0-.387-.12-.387-.268 0-.148.174-.268.387-.268.214 0 .387.12.387.269zm1.25.477c0 .148-.174.268-.387.268-.213 0-.387-.12-.387-.268 0-.148.174-.268.387-.268.214 0 .387.12.387.269zm1.245 0c0 .148-.174.268-.387.268-.213 0-.387-.12-.387-.268 0-.148.174-.268.387-.268.214 0 .387.12.387.269zm1.262-.207c0 .148-.174.268-.387.268-.213 0-.387-.12-.387-.268 0-.148.174-.268.387-.268.214 0 .387.12.387.269z" fill="#C3E4D8"/><path d="M107.5 24.677l-.387 1.347s-.101.487.358.573c.479-.009.44-.457.406-.603l-.378-1.318z" fill="#9CDAF1"/></g></svg>