<svg width="137" height="37" xmlns="http://www.w3.org/2000/svg"><title>Layer 1</title><g><path d="M100.88 2.975c0-1.432 1.19-2.593 2.658-2.593h30.655c1.468 0 2.658 1.161 2.658 2.593v31.013c0 1.432-1.19 2.593-2.658 2.593h-30.655c-1.468 0-2.658-1.161-2.658-2.593v-31.013z" fill="#069"/><path d="M.186 30.704h15.012v-4.928h-9.579v-18.803h-5.433v23.732z" fill-rule="evenodd"/><path d="M22.798 30.704v-16.345h-5.433v16.345h5.433zm-2.717-18.577c1.895 0 3.074-1.255 3.074-2.825-.035-1.603-1.179-2.823-3.038-2.823-1.859 0-3.074 1.22-3.074 2.823 0 1.57 1.179 2.825 3.002 2.825h.035z" fill-rule="evenodd"/><path d="M25.32 30.704h5.433v-9.128c0-.489.035-.977.179-1.326.393-.976 1.286-1.987 2.787-1.987 1.966 0 2.753 1.499 2.753 3.695v8.745h5.433v-9.373c0-5.021-2.681-7.357-6.255-7.357-2.931 0-4.218 1.638-4.933 2.754h.036v-2.37h-5.433c.071 1.534 0 16.345 0 16.345z" fill-rule="evenodd"/><path d="M49.569 6.972h-5.433v23.732h5.433v-5.299l1.358-1.709 4.254 7.009h6.684l-7.148-10.146 6.255-6.903h-6.541s-4.468 6.176-4.861 6.909v-13.59z" fill-rule="evenodd"/><path d="M76.394 23.886c.071-.42.179-1.225.179-2.136 0-4.226-2.145-8.515-7.792-8.515-6.041 0-8.829 4.777-8.829 9.11 0 5.359 3.396 8.707 9.329 8.707 2.359 0 4.539-.348 6.327-1.081l-.715-3.588c-1.465.486-2.966.729-4.825.729-2.538 0-4.754-1.041-4.933-3.262l11.259.034v.001zm-11.295-3.676c.143-1.395 1.072-3.453 3.396-3.453 2.466 0 3.038 2.197 3.038 3.453h-6.433z" fill-rule="evenodd"/><path d="M89.983 6.972v8.215h-.071c-.786-1.15-2.431-1.917-4.611-1.917-4.182 0-7.864 3.347-7.828 9.065 0 5.3 3.324 8.752 7.47 8.752 2.252 0 4.396-.977 5.469-2.86h.107l.214 2.476h4.826c-.072-1.151-.144-3.138-.144-5.09v-18.641h-5.433zm0 16.166c0 .418-.036.837-.107 1.185-.321 1.499-1.608 2.545-3.181 2.545-2.252 0-3.717-1.813-3.717-4.672 0-2.685 1.251-4.846 3.753-4.846 1.68 0 2.859 1.15 3.181 2.58.071.314.071.663.071.977v2.232z" fill-rule="evenodd"/><path d="M111.784 30.684v-16.346h-5.433v16.346h5.433zm-2.717-18.578c1.895 0 3.074-1.255 3.074-2.824-.035-1.604-1.179-2.824-3.038-2.824-1.859 0-3.074 1.22-3.074 2.824 0 1.569 1.179 2.824 3.002 2.824h.035z" fill-rule="evenodd" fill="#fff"/><path d="M114.791 30.684h5.433v-9.128c0-.489.035-.977.179-1.326.393-.976 1.287-1.987 2.788-1.987 1.966 0 2.752 1.499 2.752 3.696v8.745h5.433v-9.373c0-5.021-2.68-7.357-6.255-7.357-2.931 0-4.218 1.638-4.933 2.754h.036v-2.371h-5.433c.071 1.534 0 16.346 0 16.346z" fill-rule="evenodd" fill="#fff"/></g></svg>