<svg xmlns="http://www.w3.org/2000/svg" width="293" height="92"><text style="line-height:125%;-inkscape-font-specification:Eurostile" x="-4.193" y="50.948" font-size="40" letter-spacing="0" word-spacing="0" fill="#44719d" font-family="Eurostile"><tspan x="-4.193" y="50.948" style="-inkscape-font-specification:Eurostile Bold" font-size="76" font-weight="bold" fill="#44719d">kent</tspan></text><path style="line-height:125%;-inkscape-font-specification:Eurostile Bold" d="M10.131 66.959h-8.684c0-4.255.99-7.1 2.969-8.535 1.979-1.435 5.9-2.152 11.764-2.152 6.383 0 10.7.878 12.951 2.635 2.251 1.757 3.377 5.109 3.377 10.057v23.193h-8.498l.408-4.861-.223-.037c-1.633 3.538-5.406 5.307-11.318 5.307-8.585 0-12.877-3.649-12.877-10.947 0-7.372 4.391-11.059 13.174-11.059 5.863 0 9.426 1.348 10.688 4.045h.148v-5.752c0-2.771-.482-4.602-1.447-5.492-.965-.915-2.944-1.373-5.938-1.373-4.329 0-6.494 1.658-6.494 4.973m5.678 9.314c-4.799 0-7.199 1.658-7.199 4.973 0 2.301.495 3.81 1.484 4.527.99.717 3.068 1.076 6.234 1.076 5.171 0 7.756-1.744 7.756-5.232 0-3.562-2.758-5.344-8.275-5.344" font-size="76" font-weight="bold" letter-spacing="0" word-spacing="0" fill="#44719d" font-family="Eurostile"/><path style="line-height:125%;-inkscape-font-specification:Eurostile Bold" d="M38.578 56.68h8.424l-.334 5.975.186.037c1.658-4.28 5.368-6.42 11.133-6.42 8.387 0 12.58 3.909 12.58 11.727v24.158h-8.498v-22.711l-.186-2.486c-.396-2.647-2.474-3.971-6.234-3.971-5.715 0-8.572 2.709-8.572 8.127v21.041h-8.498v-35.477" font-size="76" font-weight="bold" letter-spacing="0" word-spacing="0" fill="#44719d" font-family="Eurostile"/><path style="line-height:125%;-inkscape-font-specification:Eurostile Bold" d="M106.933 41.502v50.654h-8.275l.297-5.715-.148-.037c-1.658 4.132-5.27 6.197-10.836 6.197-5.616 0-9.339-1.274-11.17-3.822-1.806-2.573-2.709-7.781-2.709-15.623 0-6.333.977-10.725 2.932-13.174 1.954-2.474 5.43-3.711 10.428-3.711 5.789 0 9.401 1.831 10.836 5.492l.148-.037v-20.225h8.498m-16.662 21.486c-3.167 0-5.22.68-6.16 2.041-.94 1.336-1.41 4.23-1.41 8.684 0 5.146.47 8.461 1.41 9.945s3.043 2.227 6.309 2.227c3.414 0 5.591-.73 6.531-2.189.965-1.46 1.447-4.824 1.447-10.094 0-4.354-.532-7.212-1.596-8.572-1.039-1.361-3.216-2.041-6.531-2.041" font-size="76" font-weight="bold" letter-spacing="0" word-spacing="0" fill="#44719d" font-family="Eurostile"/><path style="line-height:125%;-inkscape-font-specification:Eurostile Bold" d="M137.742 80.801h8.535v1.373c0 6.927-5.195 10.391-15.586 10.391-7.051 0-11.665-1.2-13.842-3.6-2.177-2.4-3.266-7.484-3.266-15.252 0-6.902 1.138-11.541 3.414-13.916 2.276-2.375 6.717-3.562 13.322-3.563 6.333 0 10.576 1.163 12.729 3.488 2.152 2.301 3.228 6.841 3.229 13.619v2.598h-24.01c-.05.792-.074 1.311-.074 1.559 0 3.488.532 5.814 1.596 6.977 1.089 1.163 3.241 1.744 6.457 1.744 3.117 0 5.146-.334 6.086-1.002.94-.693 1.41-2.165 1.41-4.416m.074-10.057l-.037-1.41c0-2.82-.495-4.651-1.484-5.492-.965-.841-3.08-1.262-6.346-1.262-3.167 0-5.232.507-6.197 1.521-.94 1.014-1.41 3.229-1.41 6.643h15.475" font-size="76" font-weight="bold" letter-spacing="0" word-spacing="0" fill="#44719d" font-family="Eurostile"/><path style="line-height:125%;-inkscape-font-specification:Eurostile Bold" d="M151.55 56.68h8.498l-.52 4.973.186.037c2.029-3.711 5.22-5.566 9.574-5.566 6.234 0 9.352 3.934 9.352 11.801v2.486h-8.016c.099-.965.148-1.596.148-1.893 0-3.785-1.472-5.678-4.416-5.678-4.206 0-6.309 2.808-6.309 8.424v20.893h-8.498v-35.477" font-size="76" font-weight="bold" letter-spacing="0" word-spacing="0" fill="#44719d" font-family="Eurostile"/><path style="line-height:125%;-inkscape-font-specification:Eurostile Bold" d="M215.003 66.439h-8.313l-.111-.668c-.173-1.707-.668-2.771-1.484-3.191-.792-.421-2.734-.631-5.826-.631-4.428 0-6.643 1.435-6.643 4.305 0 1.954.383 3.117 1.15 3.488.792.371 3.439.668 7.941.891 6.061.297 10.007 1.101 11.838 2.412 1.831 1.311 2.746 3.995 2.746 8.053 0 4.329-1.225 7.335-3.674 9.018-2.425 1.658-6.791 2.486-13.1 2.486-6.061 0-10.205-.755-12.432-2.264-2.227-1.509-3.34-4.329-3.34-8.461v-.891h8.832c-.124.495-.198.891-.223 1.188-.346 3.142 2.078 4.713 7.273 4.713 5.368 0 8.053-1.559 8.053-4.676 0-2.993-1.682-4.49-5.047-4.49-7.595 0-12.605-.717-15.029-2.152-2.4-1.435-3.6-4.416-3.6-8.943 0-4.057 1.101-6.803 3.303-8.238 2.202-1.435 6.432-2.152 12.691-2.152 5.913 0 9.883.693 11.912 2.078 2.053 1.385 3.08 4.094 3.08 8.127" font-size="76" font-weight="bold" letter-spacing="0" word-spacing="0" fill="#44719d" font-family="Eurostile"/><path style="line-height:125%;-inkscape-font-specification:Eurostile Bold" d="M245.804 80.801h8.535v1.373c0 6.927-5.195 10.391-15.586 10.391-7.051 0-11.665-1.2-13.842-3.6-2.177-2.4-3.266-7.484-3.266-15.252 0-6.902 1.138-11.541 3.414-13.916 2.276-2.375 6.717-3.562 13.322-3.563 6.333 0 10.576 1.163 12.729 3.488 2.152 2.301 3.228 6.841 3.229 13.619v2.598h-24.01c-.05.792-.074 1.311-.074 1.559 0 3.488.532 5.814 1.596 6.977 1.089 1.163 3.241 1.744 6.457 1.744 3.117 0 5.146-.334 6.086-1.002.94-.693 1.41-2.165 1.41-4.416m.074-10.057l-.037-1.41c0-2.82-.495-4.651-1.484-5.492-.965-.841-3.08-1.262-6.346-1.262-3.167 0-5.232.507-6.197 1.521-.94 1.014-1.41 3.229-1.41 6.643h15.475" font-size="76" font-weight="bold" letter-spacing="0" word-spacing="0" fill="#44719d" font-family="Eurostile"/><path style="line-height:125%;-inkscape-font-specification:Eurostile Bold" d="M260.29 56.68h8.424l-.334 5.975.186.037c1.658-4.28 5.368-6.42 11.133-6.42 8.387 0 12.58 3.909 12.58 11.727v24.158h-8.498v-22.711l-.186-2.486c-.396-2.647-2.474-3.971-6.234-3.971-5.715 0-8.572 2.709-8.572 8.127v21.041h-8.498v-35.477" font-size="76" font-weight="bold" letter-spacing="0" word-spacing="0" fill="#44719d" font-family="Eurostile"/></svg>