<svg width="140" height="26" xmlns="http://www.w3.org/2000/svg"><title>Layer 1</title><g><path d="M87.389 15.943l-.062.006.108-.017-.046.012z"/><path d="M15.31 21.004c0 .702-.252 1.304-.755 1.804-.503.501-1.107.752-1.811.752h-5.073c-2.114 0-3.92-.747-5.42-2.242s-2.25-3.295-2.25-5.402v-10.247c0-.722.25-1.329.749-1.821.5-.491 1.11-.738 1.83-.738.699 0 1.3.251 1.799.752.5.501.751 1.102.751 1.804v3.71h7.223c.656 0 1.217.232 1.686.698.469.465.702 1.022.702 1.673 0 .65-.233 1.208-.7 1.673-.467.464-1.027.697-1.68.697h-7.231v1.796c0 .704.246 1.302.74 1.796.493.492 1.093.738 1.798.738h5.074c.704 0 1.309.251 1.812.752.504.501.755 1.103.755 1.804z"/><path d="M74.728 21.004c0 .702-.252 1.304-.755 1.804-.503.501-1.107.752-1.811.752h-2.304c-2.114 0-3.92-.747-5.42-2.242s-2.249-3.295-2.249-5.402v-10.247c0-.722.249-1.329.749-1.821.499-.491 1.11-.738 1.83-.738.699 0 1.3.251 1.799.752.5.501.751 1.102.751 1.804v3.71h4.454c.656 0 1.217.233 1.686.698.469.465.702 1.022.702 1.673 0 .65-.233 1.208-.7 1.673-.467.464-1.027.697-1.68.697h-4.463v1.796c0 .704.246 1.302.74 1.796.494.492 1.093.738 1.798.738h2.306c.704 0 1.309.251 1.812.752.503.501.755 1.103.755 1.804z"/><path d="M61.315 21.004c0 .702-.252 1.304-.755 1.804-.503.501-1.107.752-1.811.752h-2.305c-2.114 0-3.92-.747-5.42-2.242s-2.25-3.295-2.25-5.402v-10.247c0-.722.25-1.329.749-1.821.5-.491 1.109-.738 1.83-.738.699 0 1.3.251 1.799.752.5.501.751 1.102.751 1.804v3.71h4.454c.656 0 1.218.233 1.686.698.469.465.702 1.022.702 1.673 0 .65-.233 1.208-.7 1.673-.467.464-1.027.697-1.68.697h-4.462v1.796c0 .704.246 1.302.74 1.796.493.492 1.093.738 1.797.738h2.306c.704 0 1.309.251 1.812.752.502.501.754 1.103.754 1.804z"/><path d="M40.047 16.409c0 1.971-.701 3.656-2.104 5.054-1.403 1.398-3.092 2.097-5.069 2.097-1.808 0-3.399-.609-4.774-1.829-1.356 1.22-2.938 1.829-4.745 1.829-1.976 0-3.667-.699-5.07-2.097-1.402-1.398-2.104-3.083-2.104-5.054v-4.995c0-.676.235-1.243.706-1.703.469-.46 1.034-.69 1.692-.69.659 0 1.224.23 1.693.69.47.46.706 1.028.706 1.704v4.997c0 .659.231 1.217.691 1.677.462.46 1.022.689 1.681.689.64 0 1.191-.229 1.652-.689.461-.461.691-1.019.691-1.677v-4.969c0-.657.236-1.225.707-1.704.472-.478 1.048-.719 1.727-.719.659 0 1.225.235 1.697.705.472.469.707 1.033.707 1.69v4.997c0 .659.231 1.217.692 1.677.461.46 1.012.689 1.652.689.659 0 1.22-.229 1.68-.689.462-.461.692-1.019.692-1.677v-4.997c0-.657.235-1.221.706-1.69.47-.47 1.035-.705 1.692-.705.659 0 1.224.235 1.693.704.47.469.705 1.032.705 1.689v4.995h-.001z"/><path d="M46.976 5.11c0 .701-.251 1.303-.754 1.804-.503.501-1.106.752-1.809.752-.705 0-1.308-.251-1.811-.752-.502-.501-.753-1.103-.753-1.804 0-.702.252-1.303.753-1.804.503-.502 1.106-.752 1.811-.752.704 0 1.307.25 1.809.752.503.501.754 1.102.754 1.804z"/><path d="M46.976 21.001c0 .703-.251 1.305-.754 1.807s-1.106.752-1.809.752c-.705 0-1.308-.25-1.811-.752-.502-.501-.753-1.104-.753-1.807v-9.422c0-.703.252-1.305.753-1.806.503-.502 1.106-.753 1.811-.753.704 0 1.307.251 1.809.753.503.501.754 1.103.754 1.806v9.422z"/><path d="M105.229 11.749c0 .65-.234 1.208-.702 1.673-.467.464-1.027.697-1.68.697h-3.502c-.654 0-1.21.228-1.667.685-.458.456-.686 1.009-.686 1.662v4.72c0 .651-.233 1.211-.699 1.676-.467.467-1.026.698-1.679.698s-1.213-.231-1.679-.698c-.467-.465-.7-1.023-.7-1.675v-4.718c0-1.954.695-3.625 2.086-5.011 1.391-1.386 3.067-2.08 5.027-2.08h3.5c.654 0 1.214.233 1.68.698.467.465.701 1.022.701 1.673z"/><path d="M82.757 23.56c-2.018 0-3.92-.767-5.421-2.3-1.499-1.534-2.076-3.206-2.076-5.367 0 0-.146-6.875 7.629-6.875 6.084 0 7.936 4.273 7.936 6.383 0 1.677-.767 2.272-2.513 2.272h-7.776s-.282 1.779 3.261 1.779h4.437c1.134 0 2.054.92 2.054 2.054 0 1.135-.92 2.054-2.054 2.054h-5.477zm-2.169-9.162h5.105c0-1.677-2.539-1.677-2.539-1.677s-2.566 0-2.566 1.677z"/><path d="M139.842 11.969c-1.325.226-3.245-.009-4.264-.432 2.115-.175 3.547-1.136 4.099-2.441-.762.469-3.13.98-4.436.493-.065-.307-.135-.599-.207-.864-.994-3.659-4.405-6.609-7.975-6.252.287-.117.58-.225.875-.324.391-.141 2.698-.517 2.336-1.331-.307-.718-3.127.54-3.658.705.701-.263 1.861-.716 1.984-1.522-1.073.147-2.127.655-2.941 1.394.295-.316.517-.702.564-1.118-2.863 1.832-4.536 5.522-5.889 9.103-1.063-1.032-2.007-1.844-2.851-2.296-2.37-1.271-5.205-2.599-9.654-4.252-.137 1.473.727 3.434 3.217 4.736-.539-.073-1.525.09-2.313.278.32 1.69 1.37 3.08 4.213 3.752-1.299.085-1.972.383-2.579 1.019.591 1.175 2.037 2.556 4.632 2.272-2.889 1.247-1.178 3.554 1.172 3.21-4.007 4.146-10.328 3.838-13.957.374 9.474 12.924 30.071 7.642 33.14-4.806 2.301.019 3.652-.797 4.491-1.697z" fill="#3cf"/></g></svg>