<svg xmlns="http://www.w3.org/2000/svg" width="140" height="26"><g><title>Layer 1</title><g><path d="M87.389 15.943l-.062.006.108-.017-.046.012z"/><path d="M14.681 20.678c0 .673-.241 1.25-.724 1.73-.483.481-1.061.721-1.737.721h-4.865c-2.027 0-3.759-.716-5.197-2.15-1.439-1.434-2.157-3.16-2.157-5.18v-9.826c0-.693.24-1.274.719-1.746.479-.471 1.064-.707 1.755-.707.671 0 1.247.241 1.725.721.48.48.72 1.056.72 1.73v3.558h6.926c.629 0 1.167.223 1.617.669.449.445.673.98.673 1.604 0 .623-.224 1.158-.671 1.604-.447.445-.985.668-1.611.668h-6.934v1.722c0 .675.236 1.249.71 1.722.473.472 1.048.708 1.724.708h4.866c.675 0 1.255.241 1.738.721.483.481.724 1.057.724 1.73z"/><path d="M71.658 20.678c0 .673-.241 1.25-.724 1.73-.483.481-1.061.721-1.737.721h-2.21c-2.027 0-3.759-.716-5.197-2.15-1.438-1.434-2.157-3.16-2.157-5.18v-9.826c0-.693.239-1.274.719-1.746.479-.471 1.064-.707 1.755-.707.67 0 1.247.241 1.725.721.48.48.72 1.056.72 1.73v3.558h4.271c.629 0 1.167.223 1.617.669.45.445.673.98.673 1.604 0 .623-.223 1.158-.671 1.604-.448.445-.985.668-1.611.668h-4.279v1.722c0 .675.236 1.249.71 1.722.473.472 1.048.708 1.724.708h2.211c.675 0 1.255.241 1.738.721.483.481.724 1.057.724 1.73z"/><path d="M58.796 20.678c0 .673-.241 1.25-.724 1.73-.483.481-1.061.721-1.737.721h-2.21c-2.027 0-3.759-.716-5.197-2.15-1.438-1.434-2.157-3.16-2.157-5.18v-9.826c0-.693.24-1.274.719-1.746.479-.471 1.064-.707 1.755-.707.67 0 1.247.241 1.725.721.48.48.72 1.056.72 1.73v3.558h4.271c.629 0 1.167.223 1.617.669.45.445.673.98.673 1.604 0 .623-.223 1.158-.671 1.604-.448.445-.985.668-1.611.668h-4.279v1.722c0 .675.236 1.249.71 1.722.473.472 1.048.708 1.723.708h2.211c.675 0 1.255.241 1.737.721.481.481.723 1.057.723 1.73z"/><path d="M38.402 16.271c0 1.89-.672 3.506-2.018 4.847-1.345 1.341-2.965 2.011-4.861 2.011-1.734 0-3.259-.584-4.577-1.754-1.3 1.17-2.817 1.754-4.55 1.754-1.895 0-3.516-.67-4.862-2.011-1.345-1.341-2.017-2.957-2.017-4.847v-4.79c0-.648.225-1.192.677-1.633.45-.441.992-.662 1.623-.662.632 0 1.173.221 1.624.662.451.441.677.986.677 1.634v4.792c0 .632.221 1.167.663 1.608.443.441.98.661 1.612.661.614 0 1.142-.22 1.585-.661.442-.442.663-.977.663-1.608v-4.765c0-.63.227-1.174.678-1.634.453-.459 1.005-.689 1.656-.689.632 0 1.175.225 1.627.676.453.45.678.991.678 1.62v4.792c0 .632.221 1.167.664 1.608.442.441.971.661 1.584.661.632 0 1.17-.22 1.611-.661.443-.442.664-.977.664-1.608v-4.792c0-.63.226-1.171.677-1.62.451-.451.992-.676 1.623-.676.632 0 1.174.225 1.624.675.451.45.676.99.676 1.62v4.79h-.001z"/><path d="M45.046 5.436c0 .672-.241 1.249-.723 1.73-.483.48-1.061.721-1.735.721-.676 0-1.254-.241-1.737-.721-.481-.48-.722-1.057-.722-1.73s.241-1.25.722-1.73c.483-.481 1.061-.721 1.737-.721.675 0 1.253.24 1.735.721.483.48.723 1.057.723 1.73z"/><path d="M45.046 20.675c0 .674-.241 1.251-.723 1.733-.483.481-1.061.721-1.735.721-.676 0-1.254-.24-1.737-.721-.481-.481-.722-1.059-.722-1.733v-9.035c0-.674.241-1.251.722-1.732.483-.481 1.061-.722 1.737-.722.675 0 1.253.241 1.735.722.483.48.723 1.058.723 1.732v9.035z"/><path d="M100.906 11.803c0 .623-.224 1.158-.673 1.605-.448.445-.985.668-1.611.668h-3.358c-.627 0-1.16.219-1.599.657-.44.437-.658.968-.658 1.594v4.527c0 .624-.223 1.161-.671 1.607-.447.448-.984.67-1.61.67-.626 0-1.163-.222-1.61-.669-.447-.446-.671-.981-.671-1.606v-4.524c0-1.874.667-3.476 2-4.805 1.334-1.329 2.941-1.995 4.821-1.995h3.356c.627 0 1.164.223 1.611.669.448.446.672.98.672 1.604z"/><path d="M79.357 23.129c-1.935 0-3.759-.735-5.198-2.206-1.438-1.471-1.99-3.074-1.99-5.147 0 0-.14-6.593 7.316-6.593 5.834 0 7.61 4.098 7.61 6.121 0 1.608-.736 2.179-2.41 2.179h-7.456s-.27 1.706 3.127 1.706h4.255c1.088 0 1.97.882 1.97 1.97s-.882 1.97-1.97 1.97h-5.252zm-2.08-8.786h4.895c0-1.608-2.435-1.608-2.435-1.608s-2.461 0-2.461 1.608z"/><path d="M139.843 11.969c-1.325.226-3.245-.009-4.264-.432 2.115-.175 3.547-1.136 4.099-2.441-.762.469-3.13.98-4.436.493-.065-.307-.135-.599-.207-.864-.994-3.659-4.405-6.609-7.975-6.252.287-.117.58-.225.875-.324.391-.141 2.698-.517 2.336-1.331-.307-.718-3.127.54-3.658.705.701-.263 1.861-.716 1.984-1.522-1.073.147-2.127.655-2.941 1.394.295-.316.517-.702.564-1.118-2.863 1.832-4.536 5.522-5.889 9.103-1.063-1.032-2.007-1.844-2.851-2.296-2.37-1.271-5.205-2.599-9.654-4.252-.137 1.473.727 3.434 3.217 4.736-.539-.073-1.525.09-2.313.278.32 1.69 1.37 3.08 4.213 3.752-1.299.085-1.972.383-2.579 1.019.591 1.175 2.037 2.556 4.632 2.272-2.889 1.247-1.178 3.554 1.172 3.21-4.007 4.146-10.328 3.838-13.957.374 9.474 12.924 30.071 7.642 33.14-4.806 2.301.019 3.652-.797 4.491-1.697z" fill="#3cf"/></g></g></svg>